<svg xmlns="http://www.w3.org/2000/svg" xmlns:xlink="http://www.w3.org/1999/xlink" contentStyleType="text/css" data-diagram-type="CLASS" height="184px" preserveAspectRatio="none" style="width:361px;height:184px;background:#FFFFFF;" version="1.1" viewBox="0 0 361 184" width="361px" zoomAndPan="magnify"><?plantuml 1.2026.4beta2?><defs/><g><!--class Logger--><g class="entity" data-qualified-name="Logger" data-source-line="4" id="ent0002"><rect fill="#F1F1F1" height="162.0781" rx="2.5" ry="2.5" style="stroke:#181818;stroke-width:0.5;" width="173.3555" x="7" y="7"/><ellipse cx="65.1738" cy="23" fill="#ADD1B2" rx="11" ry="11" style="stroke:#181818;stroke-width:1;"/><path d="M68.1426,28.6406 Q67.5645,28.9375 66.9238,29.0781 Q66.2832,29.2344 65.5801,29.2344 Q63.0801,29.2344 61.752,27.5938 Q60.4395,25.9375 60.4395,22.8125 Q60.4395,19.6875 61.752,18.0313 Q63.0801,16.375 65.5801,16.375 Q66.2832,16.375 66.9238,16.5313 Q67.5801,16.6875 68.1426,16.9844 L68.1426,19.7031 Q67.5176,19.125 66.9238,18.8594 Q66.3301,18.5781 65.7051,18.5781 Q64.3613,18.5781 63.6738,19.6563 Q62.9863,20.7188 62.9863,22.8125 Q62.9863,24.9063 63.6738,25.9844 Q64.3613,27.0469 65.7051,27.0469 Q66.3301,27.0469 66.9238,26.7813 Q67.5176,26.5 68.1426,25.9219 L68.1426,28.6406 Z " fill="#000000"/><text fill="#000000" font-family="sans-serif" font-size="14" lengthAdjust="spacing" textLength="48.5078" x="85.6738" y="27.8467">Logger</text><line style="stroke:#181818;stroke-width:0.5;" x1="8" x2="179.3555" y1="39" y2="39"/><g data-visibility-modifier="PRIVATE_FIELD"><rect fill="none" height="6" style="stroke:#C82930;stroke-width:1;" width="6" x="15" y="49.6484"/></g><text fill="#000000" font-family="sans-serif" font-size="14" lengthAdjust="spacing" textLength="128.4336" x="27" y="55.9951">_instance : Logger</text><g data-visibility-modifier="PRIVATE_FIELD"><rect fill="none" height="6" style="stroke:#C82930;stroke-width:1;" width="6" x="15" y="65.9453"/></g><text fill="#000000" font-family="sans-serif" font-size="14" lengthAdjust="spacing" textLength="147.3555" x="27" y="72.292">_instance_lock : Lock</text><g data-visibility-modifier="PRIVATE_FIELD"><rect fill="none" height="6" style="stroke:#C82930;stroke-width:1;" width="6" x="15" y="82.2422"/></g><text fill="#000000" font-family="sans-serif" font-size="14" lengthAdjust="spacing" textLength="69.8154" x="27" y="88.5889">_logs : list</text><g data-visibility-modifier="PRIVATE_FIELD"><rect fill="none" height="6" style="stroke:#C82930;stroke-width:1;" width="6" x="15" y="98.5391"/></g><text fill="#000000" font-family="sans-serif" font-size="14" lengthAdjust="spacing" textLength="109.3887" x="27" y="104.8857">_log_lock : Lock</text><line style="stroke:#181818;stroke-width:0.5;" x1="8" x2="179.3555" y1="112.1875" y2="112.1875"/><g data-visibility-modifier="PUBLIC_METHOD"><ellipse cx="18" cy="125.8359" fill="#84BE84" rx="3" ry="3" style="stroke:#038048;stroke-width:1;"/></g><text fill="#000000" font-family="sans-serif" font-size="14" lengthAdjust="spacing" textLength="129.9854" x="27" y="129.1826">__new__() : Logger</text><g data-visibility-modifier="PUBLIC_METHOD"><ellipse cx="18" cy="142.1328" fill="#84BE84" rx="3" ry="3" style="stroke:#038048;stroke-width:1;"/></g><text fill="#000000" font-family="sans-serif" font-size="14" lengthAdjust="spacing" textLength="122.8896" x="27" y="145.4795">log(message: str)</text><g data-visibility-modifier="PUBLIC_METHOD"><ellipse cx="18" cy="158.4297" fill="#84BE84" rx="3" ry="3" style="stroke:#038048;stroke-width:1;"/></g><text fill="#000000" font-family="sans-serif" font-size="14" lengthAdjust="spacing" textLength="82.7422" x="27" y="161.7764">show_logs()</text></g><!--link Logger to Logger--><g class="link" data-entity-1="ent0002" data-entity-2="ent0002" data-link-type="dependency" data-source-line="18" id="lnk3"><path codeLine="18" d="M180.63,58.32 C200.65,60.88 215.36,70.79 215.36,88.04 C215.36,105.29 206.6015,114.439 186.5815,116.999" fill="none" id="Logger-to-Logger" style="stroke:#181818;stroke-width:1;stroke-dasharray:7,7;"/><polygon fill="#181818" points="180.63,117.76,190.0647,120.5861,185.5896,117.1258,189.05,112.6508,180.63,117.76" style="stroke:#181818;stroke-width:1;"/><text fill="#000000" font-family="sans-serif" font-size="13" lengthAdjust="spacing" textLength="118.9805" x="221.36" y="92.6069">singleton instance</text></g><?plantuml-src VP112i8m44NtESNiab3i0GgwSUjA3n126DBGc4Wdq8LuTsDCbGfcbkz_PdZ3zt-7SRYuO3sc6E3eDH7ZZRPvDU0KhSKPxWpox9GBb7Gm24DDVhZoqKmbD5EDVBIKYNUKlcJJAxXJAk2Yb93RtLrkYoiIQOi3K9hb6zCObx9RIFPWJHCEP_GwkHXeTBUsTVNj-yEgdez-lhPgFW40?></g></svg>