<svg xmlns="http://www.w3.org/2000/svg" xmlns:xlink="http://www.w3.org/1999/xlink" contentStyleType="text/css" data-diagram-type="CLASS" height="1677px" preserveAspectRatio="none" style="width:709px;height:1677px;background:#FFFFFF;" version="1.1" viewBox="0 0 709 1677" width="709px" zoomAndPan="magnify"><?plantuml 1.2026.4beta2?><defs/><g><!--class Shape--><g class="entity" data-qualified-name="Shape" data-source-line="4" id="ent0002"><rect fill="#F1F1F1" height="129.4844" rx="2.5" ry="2.5" style="stroke:#181818;stroke-width:0.5;" width="252.2285" x="261" y="824.05"/><ellipse cx="360.9448" cy="840.05" fill="#A9DCDF" rx="11" ry="11" style="stroke:#181818;stroke-width:1;"/><path d="M361.0542,835.3938 L359.8979,840.4719 L362.2261,840.4719 L361.0542,835.3938 Z M359.5698,833.1594 L362.5542,833.1594 L365.9136,845.55 L363.4604,845.55 L362.6948,842.4875 L359.4136,842.4875 L358.6636,845.55 L356.2261,845.55 L359.5698,833.1594 Z " fill="#000000"/><text fill="#000000" font-family="sans-serif" font-size="14" font-style="italic" lengthAdjust="spacing" textLength="43.8389" x="381.4448" y="844.8967">Shape</text><line style="stroke:#181818;stroke-width:0.5;" x1="262" x2="512.2285" y1="856.05" y2="856.05"/><g data-visibility-modifier="PUBLIC_FIELD"><ellipse cx="272" cy="869.6984" fill="none" rx="3" ry="3" style="stroke:#038048;stroke-width:1;"/></g><text fill="#000000" font-family="sans-serif" font-size="14" lengthAdjust="spacing" textLength="35.7041" x="281" y="873.0451">x: int</text><g data-visibility-modifier="PUBLIC_FIELD"><ellipse cx="272" cy="885.9953" fill="none" rx="3" ry="3" style="stroke:#038048;stroke-width:1;"/></g><text fill="#000000" font-family="sans-serif" font-size="14" lengthAdjust="spacing" textLength="35.7041" x="281" y="889.342">y: int</text><line style="stroke:#181818;stroke-width:0.5;" x1="262" x2="512.2285" y1="896.6438" y2="896.6438"/><g data-visibility-modifier="PUBLIC_METHOD"><ellipse cx="272" cy="910.2922" fill="#84BE84" rx="3" ry="3" style="stroke:#038048;stroke-width:1;"/></g><text fill="#000000" font-family="sans-serif" font-size="14" lengthAdjust="spacing" textLength="186.9014" x="281" y="913.6389">move(dx: int, dy: int): void</text><g data-visibility-modifier="PUBLIC_METHOD"><ellipse cx="272" cy="926.5891" fill="#84BE84" rx="3" ry="3" style="stroke:#038048;stroke-width:1;"/></g><text fill="#000000" font-family="sans-serif" font-size="14" lengthAdjust="spacing" textLength="139.3643" x="281" y="929.9357">deep_copy(): Shape</text><g data-visibility-modifier="PUBLIC_METHOD"><ellipse cx="272" cy="942.8859" fill="#84BE84" rx="3" ry="3" style="stroke:#038048;stroke-width:1;"/></g><text fill="#000000" font-family="sans-serif" font-size="14" lengthAdjust="spacing" textLength="226.2285" x="281" y="946.2326">accept(visitor: ShapeVisitor): str</text></g><!--class Circle--><g class="entity" data-qualified-name="Circle" data-source-line="15" id="ent0003"><rect fill="#F1F1F1" height="113.1875" rx="2.5" ry="2.5" style="stroke:#181818;stroke-width:0.5;" width="252.2285" x="246" y="1013.53"/><ellipse cx="348.0537" cy="1029.53" fill="#ADD1B2" rx="11" ry="11" style="stroke:#181818;stroke-width:1;"/><path d="M351.0225,1035.1706 Q350.4443,1035.4675 349.8037,1035.6081 Q349.1631,1035.7644 348.46,1035.7644 Q345.96,1035.7644 344.6318,1034.1238 Q343.3193,1032.4675 343.3193,1029.3425 Q343.3193,1026.2175 344.6318,1024.5613 Q345.96,1022.905 348.46,1022.905 Q349.1631,1022.905 349.8037,1023.0613 Q350.46,1023.2175 351.0225,1023.5144 L351.0225,1026.2331 Q350.3975,1025.655 349.8037,1025.3894 Q349.21,1025.1081 348.585,1025.1081 Q347.2412,1025.1081 346.5537,1026.1863 Q345.8662,1027.2488 345.8662,1029.3425 Q345.8662,1031.4363 346.5537,1032.5144 Q347.2412,1033.5769 348.585,1033.5769 Q349.21,1033.5769 349.8037,1033.3113 Q350.3975,1033.03 351.0225,1032.4519 L351.0225,1035.1706 Z " fill="#000000"/><text fill="#000000" font-family="sans-serif" font-size="14" lengthAdjust="spacing" textLength="39.6211" x="368.5537" y="1034.3767">Circle</text><line style="stroke:#181818;stroke-width:0.5;" x1="247" x2="497.2285" y1="1045.53" y2="1045.53"/><g data-visibility-modifier="PUBLIC_FIELD"><ellipse cx="257" cy="1059.1784" fill="none" rx="3" ry="3" style="stroke:#038048;stroke-width:1;"/></g><text fill="#000000" font-family="sans-serif" font-size="14" lengthAdjust="spacing" textLength="70.6973" x="266" y="1062.5251">radius: int</text><line style="stroke:#181818;stroke-width:0.5;" x1="247" x2="497.2285" y1="1069.8269" y2="1069.8269"/><g data-visibility-modifier="PUBLIC_METHOD"><ellipse cx="257" cy="1083.4753" fill="#84BE84" rx="3" ry="3" style="stroke:#038048;stroke-width:1;"/></g><text fill="#000000" font-family="sans-serif" font-size="14" lengthAdjust="spacing" textLength="137.0947" x="266" y="1086.822">__post_init__(): void</text><g data-visibility-modifier="PUBLIC_METHOD"><ellipse cx="257" cy="1099.7722" fill="#84BE84" rx="3" ry="3" style="stroke:#038048;stroke-width:1;"/></g><text fill="#000000" font-family="sans-serif" font-size="14" lengthAdjust="spacing" textLength="135.1465" x="266" y="1103.1189">deep_copy(): Circle</text><g data-visibility-modifier="PUBLIC_METHOD"><ellipse cx="257" cy="1116.0691" fill="#84BE84" rx="3" ry="3" style="stroke:#038048;stroke-width:1;"/></g><text fill="#000000" font-family="sans-serif" font-size="14" lengthAdjust="spacing" textLength="226.2285" x="266" y="1119.4157">accept(visitor: ShapeVisitor): str</text></g><!--class Rectangle--><g class="entity" data-qualified-name="Rectangle" data-source-line="22" id="ent0004"><rect fill="#F1F1F1" height="129.4844" rx="2.5" ry="2.5" style="stroke:#181818;stroke-width:0.5;" width="252.2285" x="7" y="1516.8"/><ellipse cx="93.6797" cy="1532.8" fill="#ADD1B2" rx="11" ry="11" style="stroke:#181818;stroke-width:1;"/><path d="M96.6484,1538.4406 Q96.0703,1538.7375 95.4297,1538.8781 Q94.7891,1539.0344 94.0859,1539.0344 Q91.5859,1539.0344 90.2578,1537.3938 Q88.9453,1535.7375 88.9453,1532.6125 Q88.9453,1529.4875 90.2578,1527.8313 Q91.5859,1526.175 94.0859,1526.175 Q94.7891,1526.175 95.4297,1526.3313 Q96.0859,1526.4875 96.6484,1526.7844 L96.6484,1529.5031 Q96.0234,1528.925 95.4297,1528.6594 Q94.8359,1528.3781 94.2109,1528.3781 Q92.8672,1528.3781 92.1797,1529.4563 Q91.4922,1530.5188 91.4922,1532.6125 Q91.4922,1534.7063 92.1797,1535.7844 Q92.8672,1536.8469 94.2109,1536.8469 Q94.8359,1536.8469 95.4297,1536.5813 Q96.0234,1536.3 96.6484,1535.7219 L96.6484,1538.4406 Z " fill="#000000"/><text fill="#000000" font-family="sans-serif" font-size="14" lengthAdjust="spacing" textLength="70.3691" x="114.1797" y="1537.6467">Rectangle</text><line style="stroke:#181818;stroke-width:0.5;" x1="8" x2="258.2285" y1="1548.8" y2="1548.8"/><g data-visibility-modifier="PUBLIC_FIELD"><ellipse cx="18" cy="1562.4484" fill="none" rx="3" ry="3" style="stroke:#038048;stroke-width:1;"/></g><text fill="#000000" font-family="sans-serif" font-size="14" lengthAdjust="spacing" textLength="66.0078" x="27" y="1565.7951">width: int</text><g data-visibility-modifier="PUBLIC_FIELD"><ellipse cx="18" cy="1578.7453" fill="none" rx="3" ry="3" style="stroke:#038048;stroke-width:1;"/></g><text fill="#000000" font-family="sans-serif" font-size="14" lengthAdjust="spacing" textLength="72.0439" x="27" y="1582.092">height: int</text><line style="stroke:#181818;stroke-width:0.5;" x1="8" x2="258.2285" y1="1589.3938" y2="1589.3938"/><g data-visibility-modifier="PUBLIC_METHOD"><ellipse cx="18" cy="1603.0422" fill="#84BE84" rx="3" ry="3" style="stroke:#038048;stroke-width:1;"/></g><text fill="#000000" font-family="sans-serif" font-size="14" lengthAdjust="spacing" textLength="137.0947" x="27" y="1606.3889">__post_init__(): void</text><g data-visibility-modifier="PUBLIC_METHOD"><ellipse cx="18" cy="1619.3391" fill="#84BE84" rx="3" ry="3" style="stroke:#038048;stroke-width:1;"/></g><text fill="#000000" font-family="sans-serif" font-size="14" lengthAdjust="spacing" textLength="165.8945" x="27" y="1622.6857">deep_copy(): Rectangle</text><g data-visibility-modifier="PUBLIC_METHOD"><ellipse cx="18" cy="1635.6359" fill="#84BE84" rx="3" ry="3" style="stroke:#038048;stroke-width:1;"/></g><text fill="#000000" font-family="sans-serif" font-size="14" lengthAdjust="spacing" textLength="226.2285" x="27" y="1638.9826">accept(visitor: ShapeVisitor): str</text></g><!--class ShapeVisitor--><g class="entity" data-qualified-name="ShapeVisitor" data-source-line="33" id="ent0007"><rect fill="#F1F1F1" height="96.8906" rx="2.5" ry="2.5" style="stroke:#181818;stroke-width:0.5;" width="312.8086" x="75.71" y="1186.72"/><ellipse cx="183.7144" cy="1202.72" fill="#B4A7E5" rx="11" ry="11" style="stroke:#181818;stroke-width:1;"/><path d="M179.6363,1198.4856 L179.6363,1196.3294 L187.0269,1196.3294 L187.0269,1198.4856 L184.5581,1198.4856 L184.5581,1206.5637 L187.0269,1206.5637 L187.0269,1208.72 L179.6363,1208.72 L179.6363,1206.5637 L182.105,1206.5637 L182.105,1198.4856 L179.6363,1198.4856 Z " fill="#000000"/><text fill="#000000" font-family="sans-serif" font-size="14" font-style="italic" lengthAdjust="spacing" textLength="88.2998" x="204.2144" y="1207.5667">ShapeVisitor</text><line style="stroke:#181818;stroke-width:0.5;" x1="76.71" x2="387.5186" y1="1218.72" y2="1218.72"/><line style="stroke:#181818;stroke-width:0.5;" x1="76.71" x2="387.5186" y1="1226.72" y2="1226.72"/><g data-visibility-modifier="PUBLIC_METHOD"><ellipse cx="86.71" cy="1240.3684" fill="#84BE84" rx="3" ry="3" style="stroke:#038048;stroke-width:1;"/></g><text fill="#000000" font-family="sans-serif" font-size="14" lengthAdjust="spacing" textLength="198.3516" x="95.71" y="1243.7151">visit_circle(circle: Circle): str</text><g data-visibility-modifier="PUBLIC_METHOD"><ellipse cx="86.71" cy="1256.6653" fill="#84BE84" rx="3" ry="3" style="stroke:#038048;stroke-width:1;"/></g><text fill="#000000" font-family="sans-serif" font-size="14" lengthAdjust="spacing" textLength="286.8086" x="95.71" y="1260.012">visit_rectangle(rectangle: Rectangle): str</text><g data-visibility-modifier="PUBLIC_METHOD"><ellipse cx="86.71" cy="1272.9622" fill="#84BE84" rx="3" ry="3" style="stroke:#038048;stroke-width:1;"/></g><text fill="#000000" font-family="sans-serif" font-size="14" lengthAdjust="spacing" textLength="252.3486" x="95.71" y="1276.3089">visit_group(group: ShapeGroup): str</text></g><!--class ShapeGroup--><g class="entity" data-qualified-name="ShapeGroup" data-source-line="39" id="ent0010"><rect fill="#F1F1F1" height="162.0781" rx="2.5" ry="2.5" style="stroke:#181818;stroke-width:0.5;" width="252.2285" x="442" y="1500.5"/><ellipse cx="520.48" cy="1516.5" fill="#ADD1B2" rx="11" ry="11" style="stroke:#181818;stroke-width:1;"/><path d="M523.4487,1522.1406 Q522.8706,1522.4375 522.23,1522.5781 Q521.5894,1522.7344 520.8862,1522.7344 Q518.3862,1522.7344 517.0581,1521.0938 Q515.7456,1519.4375 515.7456,1516.3125 Q515.7456,1513.1875 517.0581,1511.5313 Q518.3862,1509.875 520.8862,1509.875 Q521.5894,1509.875 522.23,1510.0313 Q522.8862,1510.1875 523.4487,1510.4844 L523.4487,1513.2031 Q522.8237,1512.625 522.23,1512.3594 Q521.6362,1512.0781 521.0112,1512.0781 Q519.6675,1512.0781 518.98,1513.1563 Q518.2925,1514.2188 518.2925,1516.3125 Q518.2925,1518.4063 518.98,1519.4844 Q519.6675,1520.5469 521.0112,1520.5469 Q521.6362,1520.5469 522.23,1520.2813 Q522.8237,1520 523.4487,1519.4219 L523.4487,1522.1406 Z " fill="#000000"/><text fill="#000000" font-family="sans-serif" font-size="14" lengthAdjust="spacing" textLength="86.7686" x="540.98" y="1521.3467">ShapeGroup</text><line style="stroke:#181818;stroke-width:0.5;" x1="443" x2="693.2285" y1="1532.5" y2="1532.5"/><g data-visibility-modifier="PRIVATE_FIELD"><rect fill="none" height="6" style="stroke:#C82930;stroke-width:1;" width="6" x="450" y="1543.1484"/></g><text fill="#000000" font-family="sans-serif" font-size="14" lengthAdjust="spacing" textLength="164.418" x="462" y="1549.4951">_children: List&lt;Shape&gt;</text><g data-visibility-modifier="PUBLIC_FIELD"><ellipse cx="453" cy="1562.4453" fill="none" rx="3" ry="3" style="stroke:#038048;stroke-width:1;"/></g><text fill="#000000" font-family="sans-serif" font-size="14" lengthAdjust="spacing" textLength="157.418" x="462" y="1565.792">children: List&lt;Shape&gt;</text><line style="stroke:#181818;stroke-width:0.5;" x1="443" x2="693.2285" y1="1573.0938" y2="1573.0938"/><g data-visibility-modifier="PUBLIC_METHOD"><ellipse cx="453" cy="1586.7422" fill="#84BE84" rx="3" ry="3" style="stroke:#038048;stroke-width:1;"/></g><text fill="#000000" font-family="sans-serif" font-size="14" lengthAdjust="spacing" textLength="171.3223" x="462" y="1590.0889">add(shape: Shape): void</text><g data-visibility-modifier="PUBLIC_METHOD"><ellipse cx="453" cy="1603.0391" fill="#84BE84" rx="3" ry="3" style="stroke:#038048;stroke-width:1;"/></g><text fill="#000000" font-family="sans-serif" font-size="14" lengthAdjust="spacing" textLength="198.4404" x="462" y="1606.3857">remove(shape: Shape): void</text><g data-visibility-modifier="PUBLIC_METHOD"><ellipse cx="453" cy="1619.3359" fill="#84BE84" rx="3" ry="3" style="stroke:#038048;stroke-width:1;"/></g><text fill="#000000" font-family="sans-serif" font-size="14" lengthAdjust="spacing" textLength="186.9014" x="462" y="1622.6826">move(dx: int, dy: int): void</text><g data-visibility-modifier="PUBLIC_METHOD"><ellipse cx="453" cy="1635.6328" fill="#84BE84" rx="3" ry="3" style="stroke:#038048;stroke-width:1;"/></g><text fill="#000000" font-family="sans-serif" font-size="14" lengthAdjust="spacing" textLength="182.2939" x="462" y="1638.9795">deep_copy(): ShapeGroup</text><g data-visibility-modifier="PUBLIC_METHOD"><ellipse cx="453" cy="1651.9297" fill="#84BE84" rx="3" ry="3" style="stroke:#038048;stroke-width:1;"/></g><text fill="#000000" font-family="sans-serif" font-size="14" lengthAdjust="spacing" textLength="226.2285" x="462" y="1655.2764">accept(visitor: ShapeVisitor): str</text></g><!--class ShapePrinterVisitor--><g class="entity" data-qualified-name="ShapePrinterVisitor" data-source-line="62" id="ent0013"><rect fill="#F1F1F1" height="96.8906" rx="2.5" ry="2.5" style="stroke:#181818;stroke-width:0.5;" width="312.8086" x="185.71" y="1343.61"/><ellipse cx="270.3047" cy="1359.61" fill="#ADD1B2" rx="11" ry="11" style="stroke:#181818;stroke-width:1;"/><path d="M273.2735,1365.2506 Q272.6954,1365.5475 272.0547,1365.6881 Q271.4141,1365.8444 270.711,1365.8444 Q268.211,1365.8444 266.8829,1364.2038 Q265.5704,1362.5475 265.5704,1359.4225 Q265.5704,1356.2975 266.8829,1354.6413 Q268.211,1352.985 270.711,1352.985 Q271.4141,1352.985 272.0547,1353.1413 Q272.711,1353.2975 273.2735,1353.5944 L273.2735,1356.3131 Q272.6485,1355.735 272.0547,1355.4694 Q271.461,1355.1881 270.836,1355.1881 Q269.4922,1355.1881 268.8047,1356.2663 Q268.1172,1357.3288 268.1172,1359.4225 Q268.1172,1361.5163 268.8047,1362.5944 Q269.4922,1363.6569 270.836,1363.6569 Q271.461,1363.6569 272.0547,1363.3913 Q272.6485,1363.11 273.2735,1362.5319 L273.2735,1365.2506 Z " fill="#000000"/><text fill="#000000" font-family="sans-serif" font-size="14" lengthAdjust="spacing" textLength="135.1191" x="290.8047" y="1364.4567">ShapePrinterVisitor</text><line style="stroke:#181818;stroke-width:0.5;" x1="186.71" x2="497.5186" y1="1375.61" y2="1375.61"/><line style="stroke:#181818;stroke-width:0.5;" x1="186.71" x2="497.5186" y1="1383.61" y2="1383.61"/><g data-visibility-modifier="PUBLIC_METHOD"><ellipse cx="196.71" cy="1397.2584" fill="#84BE84" rx="3" ry="3" style="stroke:#038048;stroke-width:1;"/></g><text fill="#000000" font-family="sans-serif" font-size="14" lengthAdjust="spacing" textLength="198.3516" x="205.71" y="1400.6051">visit_circle(circle: Circle): str</text><g data-visibility-modifier="PUBLIC_METHOD"><ellipse cx="196.71" cy="1413.5553" fill="#84BE84" rx="3" ry="3" style="stroke:#038048;stroke-width:1;"/></g><text fill="#000000" font-family="sans-serif" font-size="14" lengthAdjust="spacing" textLength="286.8086" x="205.71" y="1416.902">visit_rectangle(rectangle: Rectangle): str</text><g data-visibility-modifier="PUBLIC_METHOD"><ellipse cx="196.71" cy="1429.8522" fill="#84BE84" rx="3" ry="3" style="stroke:#038048;stroke-width:1;"/></g><text fill="#000000" font-family="sans-serif" font-size="14" lengthAdjust="spacing" textLength="252.3486" x="205.71" y="1433.1989">visit_group(group: ShapeGroup): str</text></g><!--class AbstractDrawingMemento--><g class="entity" data-qualified-name="AbstractDrawingMemento" data-source-line="77" id="ent0018"><rect fill="#F1F1F1" height="64.2969" rx="2.5" ry="2.5" style="stroke:#181818;stroke-width:0.5;" width="214.8545" x="316.69" y="559.16"/><ellipse cx="331.69" cy="575.16" fill="#A9DCDF" rx="11" ry="11" style="stroke:#181818;stroke-width:1;"/><path d="M331.7994,570.5037 L330.6431,575.5819 L332.9713,575.5819 L331.7994,570.5037 Z M330.315,568.2694 L333.2994,568.2694 L336.6588,580.66 L334.2056,580.66 L333.44,577.5975 L330.1588,577.5975 L329.4088,580.66 L326.9713,580.66 L330.315,568.2694 Z " fill="#000000"/><text fill="#000000" font-family="sans-serif" font-size="14" font-style="italic" lengthAdjust="spacing" textLength="182.8545" x="345.69" y="580.0067">AbstractDrawingMemento</text><line style="stroke:#181818;stroke-width:0.5;" x1="317.69" x2="530.5445" y1="591.16" y2="591.16"/><g data-visibility-modifier="PUBLIC_FIELD"><ellipse cx="327.69" cy="604.8084" fill="none" rx="3" ry="3" style="stroke:#038048;stroke-width:1;"/></g><text fill="#000000" font-family="sans-serif" font-size="14" lengthAdjust="spacing" textLength="136.4043" x="336.69" y="608.1551">state: List&lt;Shape&gt;</text><line style="stroke:#181818;stroke-width:0.5;" x1="317.69" x2="530.5445" y1="615.4569" y2="615.4569"/></g><!--class DrawingMemento--><g class="entity" data-qualified-name="DrawingMemento" data-source-line="81" id="ent0019"><rect fill="#F1F1F1" height="80.5938" rx="2.5" ry="2.5" style="stroke:#181818;stroke-width:0.5;" width="169.4043" x="328.41" y="683.45"/><ellipse cx="349.4033" cy="699.45" fill="#ADD1B2" rx="11" ry="11" style="stroke:#181818;stroke-width:1;"/><path d="M352.372,705.0906 Q351.7939,705.3875 351.1533,705.5281 Q350.5126,705.6844 349.8095,705.6844 Q347.3095,705.6844 345.9814,704.0437 Q344.6689,702.3875 344.6689,699.2625 Q344.6689,696.1375 345.9814,694.4812 Q347.3095,692.825 349.8095,692.825 Q350.5126,692.825 351.1533,692.9812 Q351.8095,693.1375 352.372,693.4344 L352.372,696.1531 Q351.747,695.575 351.1533,695.3094 Q350.5595,695.0281 349.9345,695.0281 Q348.5908,695.0281 347.9033,696.1062 Q347.2158,697.1687 347.2158,699.2625 Q347.2158,701.3562 347.9033,702.4344 Q348.5908,703.4969 349.9345,703.4969 Q350.5595,703.4969 351.1533,703.2312 Q351.747,702.95 352.372,702.3719 L352.372,705.0906 Z " fill="#000000"/><text fill="#000000" font-family="sans-serif" font-size="14" lengthAdjust="spacing" textLength="124.0859" x="364.7351" y="704.2967">DrawingMemento</text><line style="stroke:#181818;stroke-width:0.5;" x1="329.41" x2="496.8143" y1="715.45" y2="715.45"/><g data-visibility-modifier="PRIVATE_FIELD"><rect fill="none" height="6" style="stroke:#C82930;stroke-width:1;" width="6" x="336.41" y="726.0984"/></g><text fill="#000000" font-family="sans-serif" font-size="14" lengthAdjust="spacing" textLength="143.4043" x="348.41" y="732.4451">_state: List&lt;Shape&gt;</text><g data-visibility-modifier="PUBLIC_FIELD"><ellipse cx="339.41" cy="745.3953" fill="none" rx="3" ry="3" style="stroke:#038048;stroke-width:1;"/></g><text fill="#000000" font-family="sans-serif" font-size="14" lengthAdjust="spacing" textLength="136.4043" x="348.41" y="748.742">state: List&lt;Shape&gt;</text><line style="stroke:#181818;stroke-width:0.5;" x1="329.41" x2="496.8143" y1="756.0437" y2="756.0437"/></g><!--class DrawingInterface--><g class="entity" data-qualified-name="DrawingInterface" data-source-line="93" id="ent0022"><rect fill="#F1F1F1" height="80.5938" rx="2.5" ry="2.5" style="stroke:#181818;stroke-width:0.5;" width="385.2559" x="35.49" y="196.49"/><ellipse cx="163.4212" cy="212.49" fill="#B4A7E5" rx="11" ry="11" style="stroke:#181818;stroke-width:1;"/><path d="M159.343,208.2556 L159.343,206.0994 L166.7337,206.0994 L166.7337,208.2556 L164.2649,208.2556 L164.2649,216.3338 L166.7337,216.3338 L166.7337,218.49 L159.343,218.49 L159.343,216.3338 L161.8118,216.3338 L161.8118,208.2556 L159.343,208.2556 Z " fill="#000000"/><text fill="#000000" font-family="sans-serif" font-size="14" font-style="italic" lengthAdjust="spacing" textLength="120.8936" x="183.9212" y="217.3367">DrawingInterface</text><line style="stroke:#181818;stroke-width:0.5;" x1="36.49" x2="419.7459" y1="228.49" y2="228.49"/><line style="stroke:#181818;stroke-width:0.5;" x1="36.49" x2="419.7459" y1="236.49" y2="236.49"/><g data-visibility-modifier="PUBLIC_METHOD"><ellipse cx="46.49" cy="250.1384" fill="#84BE84" rx="3" ry="3" style="stroke:#038048;stroke-width:1;"/></g><text fill="#000000" font-family="sans-serif" font-size="14" lengthAdjust="spacing" textLength="235.7168" x="55.49" y="253.4851">save(): AbstractDrawingMemento</text><g data-visibility-modifier="PUBLIC_METHOD"><ellipse cx="46.49" cy="266.4353" fill="#84BE84" rx="3" ry="3" style="stroke:#038048;stroke-width:1;"/></g><text fill="#000000" font-family="sans-serif" font-size="14" lengthAdjust="spacing" textLength="359.2559" x="55.49" y="269.782">restore(memento: AbstractDrawingMemento): void</text></g><!--class Drawing--><g class="entity" data-qualified-name="Drawing" data-source-line="98" id="ent0023"><rect fill="#F1F1F1" height="162.0781" rx="2.5" ry="2.5" style="stroke:#181818;stroke-width:0.5;" width="385.2559" x="35.49" y="337.08"/><ellipse cx="194.7605" cy="353.08" fill="#ADD1B2" rx="11" ry="11" style="stroke:#181818;stroke-width:1;"/><path d="M197.7293,358.7206 Q197.1511,359.0175 196.5105,359.1581 Q195.8699,359.3144 195.1668,359.3144 Q192.6668,359.3144 191.3386,357.6737 Q190.0261,356.0175 190.0261,352.8925 Q190.0261,349.7675 191.3386,348.1112 Q192.6668,346.455 195.1668,346.455 Q195.8699,346.455 196.5105,346.6112 Q197.1668,346.7675 197.7293,347.0644 L197.7293,349.7831 Q197.1043,349.205 196.5105,348.9394 Q195.9168,348.6581 195.2918,348.6581 Q193.948,348.6581 193.2605,349.7362 Q192.573,350.7987 192.573,352.8925 Q192.573,354.9862 193.2605,356.0644 Q193.948,357.1269 195.2918,357.1269 Q195.9168,357.1269 196.5105,356.8612 Q197.1043,356.58 197.7293,356.0019 L197.7293,358.7206 Z " fill="#000000"/><text fill="#000000" font-family="sans-serif" font-size="14" lengthAdjust="spacing" textLength="58.2148" x="215.2605" y="357.9267">Drawing</text><line style="stroke:#181818;stroke-width:0.5;" x1="36.49" x2="419.7459" y1="369.08" y2="369.08"/><g data-visibility-modifier="PRIVATE_FIELD"><rect fill="none" height="6" style="stroke:#C82930;stroke-width:1;" width="6" x="43.49" y="379.7284"/></g><text fill="#000000" font-family="sans-serif" font-size="14" lengthAdjust="spacing" textLength="157.4795" x="55.49" y="386.0751">_shapes: List&lt;Shape&gt;</text><line style="stroke:#181818;stroke-width:0.5;" x1="36.49" x2="419.7459" y1="393.3769" y2="393.3769"/><g data-visibility-modifier="PUBLIC_METHOD"><ellipse cx="46.49" cy="407.0253" fill="#84BE84" rx="3" ry="3" style="stroke:#038048;stroke-width:1;"/></g><text fill="#000000" font-family="sans-serif" font-size="14" lengthAdjust="spacing" textLength="220.5684" x="55.49" y="410.372">add_shape(shape: Shape): void</text><g data-visibility-modifier="PUBLIC_METHOD"><ellipse cx="46.49" cy="423.3222" fill="#84BE84" rx="3" ry="3" style="stroke:#038048;stroke-width:1;"/></g><text fill="#000000" font-family="sans-serif" font-size="14" lengthAdjust="spacing" textLength="247.6865" x="55.49" y="426.6689">remove_shape(shape: Shape): void</text><g data-visibility-modifier="PUBLIC_METHOD"><ellipse cx="46.49" cy="439.6191" fill="#84BE84" rx="3" ry="3" style="stroke:#038048;stroke-width:1;"/></g><text fill="#000000" font-family="sans-serif" font-size="14" lengthAdjust="spacing" textLength="340.2998" x="55.49" y="442.9657">move_shape(shape: Shape, dx: int, dy: int): void</text><g data-visibility-modifier="PUBLIC_METHOD"><ellipse cx="46.49" cy="455.9159" fill="#84BE84" rx="3" ry="3" style="stroke:#038048;stroke-width:1;"/></g><text fill="#000000" font-family="sans-serif" font-size="14" lengthAdjust="spacing" textLength="235.7168" x="55.49" y="459.2626">save(): AbstractDrawingMemento</text><g data-visibility-modifier="PUBLIC_METHOD"><ellipse cx="46.49" cy="472.2128" fill="#84BE84" rx="3" ry="3" style="stroke:#038048;stroke-width:1;"/></g><text fill="#000000" font-family="sans-serif" font-size="14" lengthAdjust="spacing" textLength="359.2559" x="55.49" y="475.5595">restore(memento: AbstractDrawingMemento): void</text><g data-visibility-modifier="PUBLIC_METHOD"><ellipse cx="46.49" cy="488.5097" fill="#84BE84" rx="3" ry="3" style="stroke:#038048;stroke-width:1;"/></g><text fill="#000000" font-family="sans-serif" font-size="14" lengthAdjust="spacing" textLength="226.2285" x="55.49" y="491.8564">accept(visitor: ShapeVisitor): str</text></g><!--class HistoryManager--><g class="entity" data-qualified-name="HistoryManager" data-source-line="117" id="ent0028"><rect fill="#F1F1F1" height="129.4844" rx="2.5" ry="2.5" style="stroke:#181818;stroke-width:0.5;" width="352.3203" x="174.95" y="7"/><ellipse cx="291.2737" cy="23" fill="#ADD1B2" rx="11" ry="11" style="stroke:#181818;stroke-width:1;"/><path d="M294.2425,28.6406 Q293.6644,28.9375 293.0237,29.0781 Q292.3831,29.2344 291.68,29.2344 Q289.18,29.2344 287.8519,27.5938 Q286.5394,25.9375 286.5394,22.8125 Q286.5394,19.6875 287.8519,18.0313 Q289.18,16.375 291.68,16.375 Q292.3831,16.375 293.0237,16.5313 Q293.68,16.6875 294.2425,16.9844 L294.2425,19.7031 Q293.6175,19.125 293.0237,18.8594 Q292.43,18.5781 291.805,18.5781 Q290.4612,18.5781 289.7737,19.6563 Q289.0862,20.7188 289.0862,22.8125 Q289.0862,24.9063 289.7737,25.9844 Q290.4612,27.0469 291.805,27.0469 Q292.43,27.0469 293.0237,26.7813 Q293.6175,26.5 294.2425,25.9219 L294.2425,28.6406 Z " fill="#000000"/><text fill="#000000" font-family="sans-serif" font-size="14" lengthAdjust="spacing" textLength="111.1729" x="311.7737" y="27.8467">HistoryManager</text><line style="stroke:#181818;stroke-width:0.5;" x1="175.95" x2="526.2703" y1="39" y2="39"/><g data-visibility-modifier="PRIVATE_FIELD"><rect fill="none" height="6" style="stroke:#C82930;stroke-width:1;" width="6" x="182.95" y="49.6484"/></g><text fill="#000000" font-family="sans-serif" font-size="14" lengthAdjust="spacing" textLength="326.3203" x="194.95" y="55.9951">_undo_stack: List&lt;AbstractDrawingMemento&gt;</text><g data-visibility-modifier="PRIVATE_FIELD"><rect fill="none" height="6" style="stroke:#C82930;stroke-width:1;" width="6" x="182.95" y="65.9453"/></g><text fill="#000000" font-family="sans-serif" font-size="14" lengthAdjust="spacing" textLength="322.9434" x="194.95" y="72.292">_redo_stack: List&lt;AbstractDrawingMemento&gt;</text><line style="stroke:#181818;stroke-width:0.5;" x1="175.95" x2="526.2703" y1="79.5938" y2="79.5938"/><g data-visibility-modifier="PUBLIC_METHOD"><ellipse cx="185.95" cy="93.2422" fill="#84BE84" rx="3" ry="3" style="stroke:#038048;stroke-width:1;"/></g><text fill="#000000" font-family="sans-serif" font-size="14" lengthAdjust="spacing" textLength="268.8711" x="194.95" y="96.5889">save(drawing: DrawingInterface): void</text><g data-visibility-modifier="PUBLIC_METHOD"><ellipse cx="185.95" cy="109.5391" fill="#84BE84" rx="3" ry="3" style="stroke:#038048;stroke-width:1;"/></g><text fill="#000000" font-family="sans-serif" font-size="14" lengthAdjust="spacing" textLength="271.2979" x="194.95" y="112.8857">undo(drawing: DrawingInterface): void</text><g data-visibility-modifier="PUBLIC_METHOD"><ellipse cx="185.95" cy="125.8359" fill="#84BE84" rx="3" ry="3" style="stroke:#038048;stroke-width:1;"/></g><text fill="#000000" font-family="sans-serif" font-size="14" lengthAdjust="spacing" textLength="267.9209" x="194.95" y="129.1826">redo(drawing: DrawingInterface): void</text></g><!--reverse link Shape to Circle--><g class="link" data-entity-1="ent0002" data-entity-2="ent0003" data-link-type="extension" data-source-line="30" id="lnk5"><path codeLine="30" d="M380.2436,971.9677 C378.6336,991.2677 378.37,994.34 376.8,1013.06" fill="none" id="Shape-backto-Circle" style="stroke:#181818;stroke-width:1;"/><polygon fill="none" points="381.74,954.03,374.2644,971.4689,386.2229,972.4665,381.74,954.03" style="stroke:#181818;stroke-width:1;"/></g><!--reverse link Shape to Rectangle--><g class="link" data-entity-1="ent0002" data-entity-2="ent0004" data-link-type="extension" data-source-line="31" id="lnk6"><path codeLine="31" d="M259.0694,963.7487 C181.1394,1015.2087 99.46,1085.59 58.11,1186.72 C12.88,1297.37 62.1,1436.81 99.39,1516.61" fill="none" id="Shape-backto-Rectangle" style="stroke:#181818;stroke-width:1;"/><polygon fill="none" points="274.09,953.83,255.7631,958.7418,262.3756,968.7556,274.09,953.83" style="stroke:#181818;stroke-width:1;"/></g><!--link Circle to ShapeVisitor--><g class="link" data-entity-1="ent0003" data-entity-2="ent0007" data-link-type="dependency" data-source-line="33" id="lnk8"><path codeLine="33" d="M324.33,1126.78 C307.69,1146.15 293.0988,1163.1479 277.0588,1181.8279" fill="none" id="Circle-to-ShapeVisitor" style="stroke:#181818;stroke-width:1;"/><polygon fill="#181818" points="273.15,1186.38,282.0479,1182.1577,276.4073,1182.5866,275.9784,1176.946,273.15,1186.38" style="stroke:#181818;stroke-width:1;"/></g><!--link Rectangle to ShapeVisitor--><g class="link" data-entity-1="ent0004" data-entity-2="ent0007" data-link-type="dependency" data-source-line="34" id="lnk9"><path codeLine="34" d="M135.84,1516.31 C139.5,1467.7 148.07,1399.92 168.11,1343.61 C175.47,1322.95 183.7949,1306.9548 195.0449,1288.9948" fill="none" id="Rectangle-to-ShapeVisitor" style="stroke:#181818;stroke-width:1;"/><polygon fill="#181818" points="198.23,1283.91,190.0625,1289.4138,195.5758,1288.1473,196.8422,1293.6606,198.23,1283.91" style="stroke:#181818;stroke-width:1;"/></g><!--reverse link Shape to ShapeGroup--><g class="link" data-entity-1="ent0002" data-entity-2="ent0010" data-link-type="extension" data-source-line="49" id="lnk11"><path codeLine="49" d="M467.673,966.6512 C484.703,984.0712 488.48,991.44 499.11,1013.53 C575.78,1172.73 570.74,1386.05 566.5,1500.3" fill="none" id="Shape-backto-ShapeGroup" style="stroke:#181818;stroke-width:1;"/><polygon fill="none" points="455.09,953.78,463.3826,970.8455,471.9634,962.4568,455.09,953.78" style="stroke:#181818;stroke-width:1;"/></g><!--link ShapeGroup to Shape--><g class="link" data-entity-1="ent0010" data-entity-2="ent0002" data-link-type="dependency" data-source-line="51" id="lnk12"><path codeLine="51" d="M589.58,1500.3 C605.74,1386.05 610.78,1172.73 534.11,1013.53 C523.48,991.44 511.4385,975.3654 493.3785,957.9454" fill="none" id="ShapeGroup-to-Shape" style="stroke:#181818;stroke-width:1;"/><polygon fill="#181818" points="489.06,953.78,492.7607,962.9071,492.6587,957.2512,498.3147,957.1492,489.06,953.78" style="stroke:#181818;stroke-width:1;"/></g><!--reverse link ShapeVisitor to ShapePrinterVisitor--><g class="link" data-entity-1="ent0007" data-entity-2="ent0013" data-link-type="extension" data-source-line="68" id="lnk14"><path codeLine="68" d="M276.4388,1298.5782 C289.8188,1317.4282 294.75,1324.36 308.14,1343.21" fill="none" id="ShapeVisitor-backto-ShapePrinterVisitor" style="stroke:#181818;stroke-width:1;stroke-dasharray:7,7;"/><polygon fill="none" points="266.02,1283.9,271.5461,1302.0511,281.3315,1295.1053,266.02,1283.9" style="stroke:#181818;stroke-width:1;"/></g><!--link ShapePrinterVisitor to Circle--><g class="link" data-entity-1="ent0013" data-entity-2="ent0003" data-link-type="dependency" data-source-line="70" id="lnk15"><path codeLine="70" d="M378.03,1343.31 C389.33,1325.52 400.35,1304.54 406.11,1283.61 C420.49,1231.38 409.4939,1175.8661 395.6839,1132.5861" fill="none" id="ShapePrinterVisitor-to-Circle" style="stroke:#181818;stroke-width:1;"/><polygon fill="#181818" points="393.86,1126.87,392.7852,1136.66,395.3799,1131.6334,400.4066,1134.2282,393.86,1126.87" style="stroke:#181818;stroke-width:1;"/></g><!--link ShapePrinterVisitor to Rectangle--><g class="link" data-entity-1="ent0013" data-entity-2="ent0004" data-link-type="dependency" data-source-line="71" id="lnk16"><path codeLine="71" d="M288.83,1440.85 C263.19,1463.85 236.5558,1487.7429 208.9058,1512.5529" fill="none" id="ShapePrinterVisitor-to-Rectangle" style="stroke:#181818;stroke-width:1;"/><polygon fill="#181818" points="204.44,1516.56,213.8101,1513.5266,208.1615,1513.2208,208.4673,1507.5722,204.44,1516.56" style="stroke:#181818;stroke-width:1;"/></g><!--link ShapePrinterVisitor to ShapeGroup--><g class="link" data-entity-1="ent0013" data-entity-2="ent0010" data-link-type="dependency" data-source-line="72" id="lnk17"><path codeLine="72" d="M399.73,1440.85 C421.44,1458.86 442.1526,1476.0486 466.4726,1496.2286" fill="none" id="ShapePrinterVisitor-to-ShapeGroup" style="stroke:#181818;stroke-width:1;"/><polygon fill="#181818" points="471.09,1500.06,466.7181,1491.2346,467.2422,1496.8672,461.6096,1497.3912,471.09,1500.06" style="stroke:#181818;stroke-width:1;"/></g><!--reverse link AbstractDrawingMemento to DrawingMemento--><g class="link" data-entity-1="ent0018" data-entity-2="ent0019" data-link-type="extension" data-source-line="86" id="lnk20"><path codeLine="86" d="M419.9385,641.8164 C418.4385,659.6164 418.06,664.07 416.46,683.05" fill="none" id="AbstractDrawingMemento-backto-DrawingMemento" style="stroke:#181818;stroke-width:1;"/><polygon fill="none" points="421.45,623.88,413.9597,641.3126,425.9173,642.3203,421.45,623.88" style="stroke:#181818;stroke-width:1;"/></g><!--link DrawingMemento to Shape--><g class="link" data-entity-1="ent0019" data-entity-2="ent0002" data-link-type="dependency" data-source-line="88" id="lnk21"><path codeLine="88" d="M406.82,764.22 C403.98,782.03 401.4932,797.6046 398.3032,817.6446" fill="none" id="DrawingMemento-to-Shape" style="stroke:#181818;stroke-width:1;"/><polygon fill="#181818" points="397.36,823.57,402.7251,815.3107,398.146,818.6322,394.8246,814.0531,397.36,823.57" style="stroke:#181818;stroke-width:1;"/></g><!--reverse link DrawingInterface to Drawing--><g class="link" data-entity-1="ent0022" data-entity-2="ent0023" data-link-type="extension" data-source-line="108" id="lnk24"><path codeLine="108" d="M228.11,295.14 C228.11,312.67 228.11,315.99 228.11,336.65" fill="none" id="DrawingInterface-backto-Drawing" style="stroke:#181818;stroke-width:1;stroke-dasharray:7,7;"/><polygon fill="none" points="228.11,277.14,222.11,295.14,234.11,295.14,228.11,277.14" style="stroke:#181818;stroke-width:1;"/></g><!--link Drawing to Shape--><g class="link" data-entity-1="ent0023" data-entity-2="ent0002" data-link-type="dependency" data-source-line="110" id="lnk25"><path codeLine="110" d="M240.06,499.43 C252.39,570.81 274.99,677.01 311.11,764.05 C319.52,784.31 327.8367,799.9854 339.3267,818.5854" fill="none" id="Drawing-to-Shape" style="stroke:#181818;stroke-width:1;"/><polygon fill="#181818" points="342.48,823.69,341.1531,813.9309,339.8522,819.4362,334.347,818.1353,342.48,823.69" style="stroke:#181818;stroke-width:1;"/></g><!--link Drawing to ShapeVisitor--><g class="link" data-entity-1="ent0023" data-entity-2="ent0007" data-link-type="dependency" data-source-line="111" id="lnk26"><path codeLine="111" d="M213.78,499.38 C204.11,560.42 193.11,646.61 193.11,722.75 C193.11,722.75 193.11,722.75 193.11,889.79 C193.11,996.29 210.7346,1114.2383 222.2346,1180.5383" fill="none" id="Drawing-to-ShapeVisitor" style="stroke:#181818;stroke-width:1;"/><polygon fill="#181818" points="223.26,1186.45,225.663,1176.8988,222.4055,1181.5236,217.7807,1178.266,223.26,1186.45" style="stroke:#181818;stroke-width:1;"/></g><!--link Drawing to AbstractDrawingMemento--><g class="link" data-entity-1="ent0023" data-entity-2="ent0018" data-link-type="dependency" data-source-line="112" id="lnk27"><path codeLine="112" d="M320.09,499.45 C344.16,520.47 364.19,537.9741 383.4,554.7441" fill="none" id="Drawing-to-AbstractDrawingMemento" style="stroke:#181818;stroke-width:1;"/><polygon fill="#181818" points="387.92,558.69,383.7706,549.7579,384.1534,555.4018,378.5095,555.7845,387.92,558.69" style="stroke:#181818;stroke-width:1;"/></g><!--link HistoryManager to DrawingInterface--><g class="link" data-entity-1="ent0028" data-entity-2="ent0022" data-link-type="dependency" data-source-line="125" id="lnk29"><path codeLine="125" d="M302.85,136.71 C287.64,156.88 274.915,173.7513 261.395,191.6613" fill="none" id="HistoryManager-to-DrawingInterface" style="stroke:#181818;stroke-width:1;"/><polygon fill="#181818" points="257.78,196.45,266.3949,191.6769,260.7925,192.4594,260.0099,186.8569,257.78,196.45" style="stroke:#181818;stroke-width:1;"/></g><!--link HistoryManager to AbstractDrawingMemento--><g class="link" data-entity-1="ent0028" data-entity-2="ent0018" data-link-type="dependency" data-source-line="126" id="lnk30"><path codeLine="126" d="M407.15,136.78 C419.81,154.9 431.46,175.45 438.11,196.49 C478.97,325.64 449.6228,484.7491 433.6128,552.8691" fill="none" id="HistoryManager-to-AbstractDrawingMemento" style="stroke:#181818;stroke-width:1;"/><polygon fill="#181818" points="432.24,558.71,438.193,550.8639,433.384,553.8426,430.4052,549.0336,432.24,558.71" style="stroke:#181818;stroke-width:1;"/></g><?plantuml-src pLRRYjim47ttL-WjMbhl1uGqK59e2rswjD1NeqgpjjX4ChAIRUZstolhuiXt9r1e7X9dvipup9aPsIlqRkoJhD3tWfI0tl-ij29KSoaGtib3AIkk0IafzPq1ZISWFX3HFQagd-rtWipdpQyruaAxwtDqVP0dmCnvtoBcN7ThT9ASEGG3A3CgopCsPflJsGcbK6fyueQTLDxrm_qpI4Cb-PDCybsXdHHKWIdE1bUJQ5VKZYkwRwfIXF5Z5PMJPKOjdN71TPRXyJfScciASRV_1bGJaLyOl72cYuX00Jmlz0sCcipNa78jthocQQWeibmo9bwrDDss4YMNSdgksSw5kNmaMeCI2tfdytzKybXwzTAC5dpF58Wr-i8hlR68hLU0CLpL_ttnBUaKsC4TzK_alMNYBUaR6nCbI2856i7dbFQv5-biAW7rH2YqQ8LPjPmpQcS1kv-m2Pvv15DXD71p5Grf7v_NLM7x7OlMNI3hULIMw7z5hoNOvlN-VeYgXtNurwsCrs_0VTd5CKGy9jC3yG0745ek6eZE8o4yMZueyi957ZBv1bIQQ6XlJDEtmOWq6mYPI3LoUxicRLkIT32BryN78VnLyPmBKg_bmftnePyRGz25c1F3JCem_N0WLUPEW0_EE0OEvqnNrukWza4uV1mwvzoXE8SQmPYZSEfC_0SQN76SzZfZ5zHR6tSq93rBME3OCLBBp81zudMLP_H01Cb1cLSqObvXo3FCp9dhjuyEmQ7jHy5alKpqsRT-cDlMmnLS0NUzOywpxarvgnqrZuNGciCyr3IlKtAjV1SzX1akwIy0?></g></svg>