<svg xmlns="http://www.w3.org/2000/svg" xmlns:xlink="http://www.w3.org/1999/xlink" contentStyleType="text/css" data-diagram-type="CLASS" height="385px" preserveAspectRatio="none" style="width:631px;height:385px;background:#FFFFFF;" version="1.1" viewBox="0 0 631 385" width="631px" zoomAndPan="magnify"><?plantuml 1.2026.4beta2?><defs/><g><!--class Notification--><g class="entity" data-qualified-name="Notification" data-source-line="4" id="ent0002"><rect fill="#F1F1F1" height="64.2969" rx="2.5" ry="2.5" style="stroke:#181818;stroke-width:0.5;" width="112.3291" x="211.42" y="7"/><ellipse cx="226.42" cy="23" fill="#A9DCDF" rx="11" ry="11" style="stroke:#181818;stroke-width:1;"/><path d="M226.5294,18.3438 L225.3731,23.4219 L227.7013,23.4219 L226.5294,18.3438 Z M225.045,16.1094 L228.0294,16.1094 L231.3888,28.5 L228.9356,28.5 L228.17,25.4375 L224.8888,25.4375 L224.1388,28.5 L221.7013,28.5 L225.045,16.1094 Z " fill="#000000"/><text fill="#000000" font-family="sans-serif" font-size="14" font-style="italic" lengthAdjust="spacing" textLength="80.3291" x="240.42" y="27.8467">Notification</text><line style="stroke:#181818;stroke-width:0.5;" x1="212.42" x2="322.7491" y1="39" y2="39"/><line style="stroke:#181818;stroke-width:0.5;" x1="212.42" x2="322.7491" y1="47" y2="47"/><g data-visibility-modifier="PUBLIC_METHOD"><ellipse cx="222.42" cy="60.6484" fill="#84BE84" rx="3" ry="3" style="stroke:#038048;stroke-width:1;"/></g><text fill="#000000" font-family="sans-serif" font-size="14" lengthAdjust="spacing" textLength="44.5908" x="231.42" y="63.9951">send()</text></g><!--class EmailNotification--><g class="entity" data-qualified-name="EmailNotification" data-source-line="11" id="ent0003"><rect fill="#F1F1F1" height="64.2969" rx="2.5" ry="2.5" style="stroke:#181818;stroke-width:0.5;" width="151.1709" x="7" y="156.44"/><ellipse cx="22" cy="172.44" fill="#ADD1B2" rx="11" ry="11" style="stroke:#181818;stroke-width:1;"/><path d="M24.9688,178.0806 Q24.3906,178.3775 23.75,178.5181 Q23.1094,178.6744 22.4063,178.6744 Q19.9063,178.6744 18.5781,177.0338 Q17.2656,175.3775 17.2656,172.2525 Q17.2656,169.1275 18.5781,167.4713 Q19.9063,165.815 22.4063,165.815 Q23.1094,165.815 23.75,165.9713 Q24.4063,166.1275 24.9688,166.4244 L24.9688,169.1431 Q24.3438,168.565 23.75,168.2994 Q23.1563,168.0181 22.5313,168.0181 Q21.1875,168.0181 20.5,169.0963 Q19.8125,170.1588 19.8125,172.2525 Q19.8125,174.3463 20.5,175.4244 Q21.1875,176.4869 22.5313,176.4869 Q23.1563,176.4869 23.75,176.2213 Q24.3438,175.94 24.9688,175.3619 L24.9688,178.0806 Z " fill="#000000"/><text fill="#000000" font-family="sans-serif" font-size="14" lengthAdjust="spacing" textLength="119.1709" x="36" y="177.2867">EmailNotification</text><line style="stroke:#181818;stroke-width:0.5;" x1="8" x2="157.1709" y1="188.44" y2="188.44"/><line style="stroke:#181818;stroke-width:0.5;" x1="8" x2="157.1709" y1="196.44" y2="196.44"/><g data-visibility-modifier="PUBLIC_METHOD"><ellipse cx="18" cy="210.0884" fill="#84BE84" rx="3" ry="3" style="stroke:#038048;stroke-width:1;"/></g><text fill="#000000" font-family="sans-serif" font-size="14" lengthAdjust="spacing" textLength="44.5908" x="27" y="213.4351">send()</text></g><!--class NotificationDecorator--><g class="entity" data-qualified-name="NotificationDecorator" data-source-line="18" id="ent0004"><rect fill="#F1F1F1" height="80.5938" rx="2.5" ry="2.5" style="stroke:#181818;stroke-width:0.5;" width="188.0049" x="193.58" y="148.29"/><ellipse cx="211.2233" cy="164.29" fill="#ADD1B2" rx="11" ry="11" style="stroke:#181818;stroke-width:1;"/><path d="M214.1921,169.9306 Q213.6139,170.2275 212.9733,170.3681 Q212.3327,170.5244 211.6296,170.5244 Q209.1296,170.5244 207.8014,168.8838 Q206.4889,167.2275 206.4889,164.1025 Q206.4889,160.9775 207.8014,159.3213 Q209.1296,157.665 211.6296,157.665 Q212.3327,157.665 212.9733,157.8213 Q213.6296,157.9775 214.1921,158.2744 L214.1921,160.9931 Q213.5671,160.415 212.9733,160.1494 Q212.3796,159.8681 211.7546,159.8681 Q210.4108,159.8681 209.7233,160.9463 Q209.0358,162.0088 209.0358,164.1025 Q209.0358,166.1963 209.7233,167.2744 Q210.4108,168.3369 211.7546,168.3369 Q212.3796,168.3369 212.9733,168.0713 Q213.5671,167.79 214.1921,167.2119 L214.1921,169.9306 Z " fill="#000000"/><text fill="#000000" font-family="sans-serif" font-size="14" lengthAdjust="spacing" textLength="150.1309" x="225.8107" y="169.1367">NotificationDecorator</text><line style="stroke:#181818;stroke-width:0.5;" x1="194.58" x2="380.5849" y1="180.29" y2="180.29"/><g data-visibility-modifier="PROTECTED_FIELD"><polygon fill="none" points="204.58,188.9384,208.58,192.9384,204.58,196.9384,200.58,192.9384" style="stroke:#B38D22;stroke-width:1;"/></g><text fill="#000000" font-family="sans-serif" font-size="14" lengthAdjust="spacing" textLength="162.0049" x="213.58" y="197.2851">_wrapped : Notification</text><line style="stroke:#181818;stroke-width:0.5;" x1="194.58" x2="380.5849" y1="204.5869" y2="204.5869"/><g data-visibility-modifier="PUBLIC_METHOD"><ellipse cx="204.58" cy="218.2353" fill="#84BE84" rx="3" ry="3" style="stroke:#038048;stroke-width:1;"/></g><text fill="#000000" font-family="sans-serif" font-size="14" lengthAdjust="spacing" textLength="44.5908" x="213.58" y="221.582">send()</text></g><!--class SMSDecorator--><g class="entity" data-qualified-name="SMSDecorator" data-source-line="26" id="ent0005"><rect fill="#F1F1F1" height="64.2969" rx="2.5" ry="2.5" style="stroke:#181818;stroke-width:0.5;" width="131.6543" x="47.76" y="298.03"/><ellipse cx="62.76" cy="314.03" fill="#ADD1B2" rx="11" ry="11" style="stroke:#181818;stroke-width:1;"/><path d="M65.7287,319.6706 Q65.1506,319.9675 64.51,320.1081 Q63.8694,320.2644 63.1663,320.2644 Q60.6663,320.2644 59.3381,318.6238 Q58.0256,316.9675 58.0256,313.8425 Q58.0256,310.7175 59.3381,309.0613 Q60.6663,307.405 63.1663,307.405 Q63.8694,307.405 64.51,307.5613 Q65.1662,307.7175 65.7287,308.0144 L65.7287,310.7331 Q65.1037,310.155 64.51,309.8894 Q63.9163,309.6081 63.2913,309.6081 Q61.9475,309.6081 61.26,310.6863 Q60.5725,311.7488 60.5725,313.8425 Q60.5725,315.9363 61.26,317.0144 Q61.9475,318.0769 63.2913,318.0769 Q63.9163,318.0769 64.51,317.8113 Q65.1037,317.53 65.7287,316.9519 L65.7287,319.6706 Z " fill="#000000"/><text fill="#000000" font-family="sans-serif" font-size="14" lengthAdjust="spacing" textLength="99.6543" x="76.76" y="318.8767">SMSDecorator</text><line style="stroke:#181818;stroke-width:0.5;" x1="48.76" x2="178.4143" y1="330.03" y2="330.03"/><line style="stroke:#181818;stroke-width:0.5;" x1="48.76" x2="178.4143" y1="338.03" y2="338.03"/><g data-visibility-modifier="PUBLIC_METHOD"><ellipse cx="58.76" cy="351.6784" fill="#84BE84" rx="3" ry="3" style="stroke:#038048;stroke-width:1;"/></g><text fill="#000000" font-family="sans-serif" font-size="14" lengthAdjust="spacing" textLength="44.5908" x="67.76" y="355.0251">send()</text></g><!--class PushDecorator--><g class="entity" data-qualified-name="PushDecorator" data-source-line="30" id="ent0006"><rect fill="#F1F1F1" height="64.2969" rx="2.5" ry="2.5" style="stroke:#181818;stroke-width:0.5;" width="135.2842" x="213.94" y="298.03"/><ellipse cx="228.94" cy="314.03" fill="#ADD1B2" rx="11" ry="11" style="stroke:#181818;stroke-width:1;"/><path d="M231.9088,319.6706 Q231.3306,319.9675 230.69,320.1081 Q230.0494,320.2644 229.3463,320.2644 Q226.8463,320.2644 225.5181,318.6238 Q224.2056,316.9675 224.2056,313.8425 Q224.2056,310.7175 225.5181,309.0613 Q226.8463,307.405 229.3463,307.405 Q230.0494,307.405 230.69,307.5613 Q231.3463,307.7175 231.9088,308.0144 L231.9088,310.7331 Q231.2838,310.155 230.69,309.8894 Q230.0963,309.6081 229.4713,309.6081 Q228.1275,309.6081 227.44,310.6863 Q226.7525,311.7488 226.7525,313.8425 Q226.7525,315.9363 227.44,317.0144 Q228.1275,318.0769 229.4713,318.0769 Q230.0963,318.0769 230.69,317.8113 Q231.2838,317.53 231.9088,316.9519 L231.9088,319.6706 Z " fill="#000000"/><text fill="#000000" font-family="sans-serif" font-size="14" lengthAdjust="spacing" textLength="103.2842" x="242.94" y="318.8767">PushDecorator</text><line style="stroke:#181818;stroke-width:0.5;" x1="214.94" x2="348.2242" y1="330.03" y2="330.03"/><line style="stroke:#181818;stroke-width:0.5;" x1="214.94" x2="348.2242" y1="338.03" y2="338.03"/><g data-visibility-modifier="PUBLIC_METHOD"><ellipse cx="224.94" cy="351.6784" fill="#84BE84" rx="3" ry="3" style="stroke:#038048;stroke-width:1;"/></g><text fill="#000000" font-family="sans-serif" font-size="14" lengthAdjust="spacing" textLength="44.5908" x="233.94" y="355.0251">send()</text></g><!--class LoggingDecorator--><g class="entity" data-qualified-name="LoggingDecorator" data-source-line="34" id="ent0007"><rect fill="#F1F1F1" height="80.5938" rx="2.5" ry="2.5" style="stroke:#181818;stroke-width:0.5;" width="175.1602" x="384.01" y="289.89"/><ellipse cx="406.9166" cy="305.89" fill="#ADD1B2" rx="11" ry="11" style="stroke:#181818;stroke-width:1;"/><path d="M409.8854,311.5306 Q409.3073,311.8275 408.6666,311.9681 Q408.026,312.1244 407.3229,312.1244 Q404.8229,312.1244 403.4948,310.4838 Q402.1823,308.8275 402.1823,305.7025 Q402.1823,302.5775 403.4948,300.9213 Q404.8229,299.265 407.3229,299.265 Q408.026,299.265 408.6666,299.4213 Q409.3229,299.5775 409.8854,299.8744 L409.8854,302.5931 Q409.2604,302.015 408.6666,301.7494 Q408.0729,301.4681 407.4479,301.4681 Q406.1041,301.4681 405.4166,302.5463 Q404.7291,303.6088 404.7291,305.7025 Q404.7291,307.7963 405.4166,308.8744 Q406.1041,309.9369 407.4479,309.9369 Q408.0729,309.9369 408.6666,309.6713 Q409.2604,309.39 409.8854,308.8119 L409.8854,311.5306 Z " fill="#000000"/><text fill="#000000" font-family="sans-serif" font-size="14" lengthAdjust="spacing" textLength="125.5898" x="422.6737" y="310.7367">LoggingDecorator</text><line style="stroke:#181818;stroke-width:0.5;" x1="385.01" x2="558.1702" y1="321.89" y2="321.89"/><g data-visibility-modifier="PRIVATE_FIELD"><rect fill="none" height="6" style="stroke:#C82930;stroke-width:1;" width="6" x="392.01" y="332.5384"/></g><text fill="#000000" font-family="sans-serif" font-size="14" lengthAdjust="spacing" textLength="149.1602" x="404.01" y="338.8851">notification_type : str</text><line style="stroke:#181818;stroke-width:0.5;" x1="385.01" x2="558.1702" y1="346.1869" y2="346.1869"/><g data-visibility-modifier="PUBLIC_METHOD"><ellipse cx="395.01" cy="359.8353" fill="#84BE84" rx="3" ry="3" style="stroke:#038048;stroke-width:1;"/></g><text fill="#000000" font-family="sans-serif" font-size="14" lengthAdjust="spacing" textLength="44.5908" x="404.01" y="363.182">send()</text></g><!--reverse link Notification to EmailNotification--><g class="link" data-entity-1="ent0002" data-entity-2="ent0003" data-link-type="extension" data-source-line="42" id="lnk8"><path codeLine="42" d="M213.8233,82.9881 C182.6033,107.8681 153.4,131.15 122.21,156.01" fill="none" id="Notification-backto-EmailNotification" style="stroke:#181818;stroke-width:1;"/><polygon fill="none" points="227.9,71.77,210.0839,78.2959,217.5626,87.6803,227.9,71.77" style="stroke:#181818;stroke-width:1;"/></g><!--reverse link Notification to NotificationDecorator--><g class="link" data-entity-1="ent0002" data-entity-2="ent0004" data-link-type="extension" data-source-line="43" id="lnk9"><path codeLine="43" d="M258.2862,89.3336 C256.2062,103.6736 257.72,103.03 260.59,118.29 C262.45,128.19 265.68,138.49 269.28,148.03" fill="none" id="Notification-backto-NotificationDecorator" style="stroke:#181818;stroke-width:1;"/><polygon fill="none" points="260.87,71.52,252.3483,88.4723,264.224,90.1949,260.87,71.52" style="stroke:#181818;stroke-width:1;"/></g><!--link NotificationDecorator to Notification--><g class="link" data-entity-1="ent0004" data-entity-2="ent0002" data-link-type="dependency" data-source-line="51" id="lnk13"><path codeLine="51" d="M282.19,147.85 C278.96,123.98 275.694,99.9759 272.684,77.7159" fill="none" id="NotificationDecorator-to-Notification" style="stroke:#181818;stroke-width:1;"/><polygon fill="#181818" points="271.88,71.77,269.1221,81.2248,272.55,76.7249,277.0499,80.1528,271.88,71.77" style="stroke:#181818;stroke-width:1;"/><text fill="#000000" font-family="sans-serif" font-size="13" lengthAdjust="spacing" textLength="134.3735" x="279.59" y="114.3569">wraps (delegates to)</text></g><!--reverse link NotificationDecorator to SMSDecorator--><g class="link" data-entity-1="ent0004" data-entity-2="ent0005" data-link-type="extension" data-source-line="44" id="lnk10"><path codeLine="44" d="M224.1486,240.4822 C197.1186,262.1622 178.14,277.39 152.88,297.66" fill="none" id="NotificationDecorator-backto-SMSDecorator" style="stroke:#181818;stroke-width:1;"/><polygon fill="none" points="238.19,229.22,220.3945,235.8018,227.9026,245.1627,238.19,229.22" style="stroke:#181818;stroke-width:1;"/></g><!--reverse link NotificationDecorator to PushDecorator--><g class="link" data-entity-1="ent0004" data-entity-2="ent0006" data-link-type="extension" data-source-line="45" id="lnk11"><path codeLine="45" d="M285.1114,247.2036 C284.1814,268.9636 283.8,277.59 282.93,297.88" fill="none" id="NotificationDecorator-backto-PushDecorator" style="stroke:#181818;stroke-width:1;"/><polygon fill="none" points="285.88,229.22,279.1169,246.9474,291.1059,247.4598,285.88,229.22" style="stroke:#181818;stroke-width:1;"/></g><!--reverse link NotificationDecorator to LoggingDecorator--><g class="link" data-entity-1="ent0004" data-entity-2="ent0007" data-link-type="extension" data-source-line="46" id="lnk12"><path codeLine="46" d="M354.1603,240.0992 C379.0203,258.9592 394.34,270.58 419.22,289.46" fill="none" id="NotificationDecorator-backto-LoggingDecorator" style="stroke:#181818;stroke-width:1;"/><polygon fill="none" points="339.82,229.22,350.5338,244.8793,357.7867,235.3191,339.82,229.22" style="stroke:#181818;stroke-width:1;"/></g><!--link LoggingDecorator to Notification--><g class="link" data-entity-1="ent0007" data-entity-2="ent0002" data-link-type="dependency" data-source-line="52" id="lnk14"><path codeLine="52" d="M473.75,289.69 C474.33,239.99 467.87,154.69 422.59,101.29 C397.89,72.17 363.2836,58.2233 329.9036,50.1933" fill="none" id="LoggingDecorator-to-Notification" style="stroke:#181818;stroke-width:1;"/><polygon fill="#181818" points="324.07,48.79,331.8848,54.7841,328.9313,49.9595,333.7559,47.006,324.07,48.79" style="stroke:#181818;stroke-width:1;"/><text fill="#000000" font-family="sans-serif" font-size="13" lengthAdjust="spacing" textLength="144.041" x="471.59" y="193.1569">wraps (via base class)</text></g><?plantuml-src fLFBJiCm4BpxArRYq4GeFr011nw7Ib0XzS2nsZhRn59gH_Qc207_ZfEYD4cJD9GzMZCxkpFh6TmEbPZ1WzdbHfDcM6WckqL9_dMOWHl75YM3pD0vM1fMMoMHbT7mAS3NjICT1w7u5gEDIcajBJ4TPnWb70IVTgYo_wZUeoDu96aiih4J59jYDUzNzMhzRZ7FAOPv2tUX4NLxDs6krSkgEqv3yO1vBLnw5lHiaaJff8kBT6EXDN_av9VquVzjjuLEoIf6BGaiPLKpbwfyVCDMm3TVKNIQUm-cDodHdrz5Q5euXclPE0RiMddEdRVoUZm10ayWYEjktkT2Sc4fdEpJSPGekcj_p3cKP-eWY2cZ19aSi0d5IV33nBr2s9G_fpgPy0S0?></g></svg>