<svg xmlns="http://www.w3.org/2000/svg" xmlns:xlink="http://www.w3.org/1999/xlink" contentStyleType="text/css" data-diagram-type="CLASS" height="341px" preserveAspectRatio="none" style="width:551px;height:341px;background:#FFFFFF;" version="1.1" viewBox="0 0 551 341" width="551px" zoomAndPan="magnify"><?plantuml 1.2026.4beta2?><defs/><g><!--class ElectricDevice--><g class="entity" data-qualified-name="ElectricDevice" data-source-line="4" id="ent0002"><rect fill="#F1F1F1" height="80.5938" rx="2.5" ry="2.5" style="stroke:#181818;stroke-width:0.5;" width="131.7568" x="94.24" y="39.59"/><ellipse cx="109.24" cy="55.59" fill="#A9DCDF" rx="11" ry="11" style="stroke:#181818;stroke-width:1;"/><path d="M109.3494,50.9338 L108.1931,56.0119 L110.5213,56.0119 L109.3494,50.9338 Z M107.865,48.6994 L110.8494,48.6994 L114.2088,61.09 L111.7556,61.09 L110.99,58.0275 L107.7088,58.0275 L106.9588,61.09 L104.5213,61.09 L107.865,48.6994 Z " fill="#000000"/><text fill="#000000" font-family="sans-serif" font-size="14" font-style="italic" lengthAdjust="spacing" textLength="99.7568" x="123.24" y="60.4367">ElectricDevice</text><line style="stroke:#181818;stroke-width:0.5;" x1="95.24" x2="224.9968" y1="71.59" y2="71.59"/><line style="stroke:#181818;stroke-width:0.5;" x1="95.24" x2="224.9968" y1="79.59" y2="79.59"/><g data-visibility-modifier="PUBLIC_METHOD"><ellipse cx="105.24" cy="93.2384" fill="#84BE84" rx="3" ry="3" style="stroke:#038048;stroke-width:1;"/></g><text fill="#000000" font-family="sans-serif" font-size="14" lengthAdjust="spacing" textLength="28.3623" x="114.24" y="96.5851">on()</text><g data-visibility-modifier="PUBLIC_METHOD"><ellipse cx="105.24" cy="109.5353" fill="#84BE84" rx="3" ry="3" style="stroke:#038048;stroke-width:1;"/></g><text fill="#000000" font-family="sans-serif" font-size="14" lengthAdjust="spacing" textLength="29.3467" x="114.24" y="112.882">off()</text></g><!--class Lights--><g class="entity" data-qualified-name="Lights" data-source-line="12" id="ent0003"><rect fill="#F1F1F1" height="80.5938" rx="2.5" ry="2.5" style="stroke:#181818;stroke-width:0.5;" width="74.2324" x="7" y="237.93"/><ellipse cx="22" cy="253.93" fill="#ADD1B2" rx="11" ry="11" style="stroke:#181818;stroke-width:1;"/><path d="M24.9688,259.5706 Q24.3906,259.8675 23.75,260.0081 Q23.1094,260.1644 22.4063,260.1644 Q19.9063,260.1644 18.5781,258.5238 Q17.2656,256.8675 17.2656,253.7425 Q17.2656,250.6175 18.5781,248.9613 Q19.9063,247.305 22.4063,247.305 Q23.1094,247.305 23.75,247.4613 Q24.4063,247.6175 24.9688,247.9144 L24.9688,250.6331 Q24.3438,250.055 23.75,249.7894 Q23.1563,249.5081 22.5313,249.5081 Q21.1875,249.5081 20.5,250.5863 Q19.8125,251.6488 19.8125,253.7425 Q19.8125,255.8363 20.5,256.9144 Q21.1875,257.9769 22.5313,257.9769 Q23.1563,257.9769 23.75,257.7113 Q24.3438,257.43 24.9688,256.8519 L24.9688,259.5706 Z " fill="#000000"/><text fill="#000000" font-family="sans-serif" font-size="14" lengthAdjust="spacing" textLength="42.2324" x="36" y="258.7767">Lights</text><line style="stroke:#181818;stroke-width:0.5;" x1="8" x2="80.2324" y1="269.93" y2="269.93"/><line style="stroke:#181818;stroke-width:0.5;" x1="8" x2="80.2324" y1="277.93" y2="277.93"/><g data-visibility-modifier="PUBLIC_METHOD"><ellipse cx="18" cy="291.5784" fill="#84BE84" rx="3" ry="3" style="stroke:#038048;stroke-width:1;"/></g><text fill="#000000" font-family="sans-serif" font-size="14" lengthAdjust="spacing" textLength="28.3623" x="27" y="294.9251">on()</text><g data-visibility-modifier="PUBLIC_METHOD"><ellipse cx="18" cy="307.8753" fill="#84BE84" rx="3" ry="3" style="stroke:#038048;stroke-width:1;"/></g><text fill="#000000" font-family="sans-serif" font-size="14" lengthAdjust="spacing" textLength="29.3467" x="27" y="311.222">off()</text></g><!--class AC--><g class="entity" data-qualified-name="AC" data-source-line="17" id="ent0004"><rect fill="#F1F1F1" height="96.8906" rx="2.5" ry="2.5" style="stroke:#181818;stroke-width:0.5;" width="217.6729" x="319.28" y="229.78"/><ellipse cx="414.1902" cy="245.78" fill="#ADD1B2" rx="11" ry="11" style="stroke:#181818;stroke-width:1;"/><path d="M417.1589,251.4206 Q416.5808,251.7175 415.9402,251.8581 Q415.2995,252.0144 414.5964,252.0144 Q412.0964,252.0144 410.7683,250.3738 Q409.4558,248.7175 409.4558,245.5925 Q409.4558,242.4675 410.7683,240.8113 Q412.0964,239.155 414.5964,239.155 Q415.2995,239.155 415.9402,239.3113 Q416.5964,239.4675 417.1589,239.7644 L417.1589,242.4831 Q416.5339,241.905 415.9402,241.6394 Q415.3464,241.3581 414.7214,241.3581 Q413.3777,241.3581 412.6902,242.4363 Q412.0027,243.4988 412.0027,245.5925 Q412.0027,247.6863 412.6902,248.7644 Q413.3777,249.8269 414.7214,249.8269 Q415.3464,249.8269 415.9402,249.5613 Q416.5339,249.28 417.1589,248.7019 L417.1589,251.4206 Z " fill="#000000"/><text fill="#000000" font-family="sans-serif" font-size="14" lengthAdjust="spacing" textLength="19.3525" x="434.6902" y="250.6267">AC</text><line style="stroke:#181818;stroke-width:0.5;" x1="320.28" x2="535.9529" y1="261.78" y2="261.78"/><line style="stroke:#181818;stroke-width:0.5;" x1="320.28" x2="535.9529" y1="269.78" y2="269.78"/><g data-visibility-modifier="PUBLIC_METHOD"><ellipse cx="330.28" cy="283.4284" fill="#84BE84" rx="3" ry="3" style="stroke:#038048;stroke-width:1;"/></g><text fill="#000000" font-family="sans-serif" font-size="14" lengthAdjust="spacing" textLength="28.3623" x="339.28" y="286.7751">on()</text><g data-visibility-modifier="PUBLIC_METHOD"><ellipse cx="330.28" cy="299.7253" fill="#84BE84" rx="3" ry="3" style="stroke:#038048;stroke-width:1;"/></g><text fill="#000000" font-family="sans-serif" font-size="14" lengthAdjust="spacing" textLength="29.3467" x="339.28" y="303.072">off()</text><g data-visibility-modifier="PUBLIC_METHOD"><ellipse cx="330.28" cy="316.0222" fill="#84BE84" rx="3" ry="3" style="stroke:#038048;stroke-width:1;"/></g><text fill="#000000" font-family="sans-serif" font-size="14" lengthAdjust="spacing" textLength="191.6729" x="339.28" y="319.3689">set_temperature(temp: int)</text></g><!--class Music--><g class="entity" data-qualified-name="Music" data-source-line="23" id="ent0005"><rect fill="#F1F1F1" height="96.8906" rx="2.5" ry="2.5" style="stroke:#181818;stroke-width:0.5;" width="168.5088" x="115.86" y="229.78"/><ellipse cx="175.9479" cy="245.78" fill="#ADD1B2" rx="11" ry="11" style="stroke:#181818;stroke-width:1;"/><path d="M178.9166,251.4206 Q178.3385,251.7175 177.6979,251.8581 Q177.0573,252.0144 176.3541,252.0144 Q173.8541,252.0144 172.526,250.3738 Q171.2135,248.7175 171.2135,245.5925 Q171.2135,242.4675 172.526,240.8113 Q173.8541,239.155 176.3541,239.155 Q177.0573,239.155 177.6979,239.3113 Q178.3541,239.4675 178.9166,239.7644 L178.9166,242.4831 Q178.2916,241.905 177.6979,241.6394 Q177.1041,241.3581 176.4791,241.3581 Q175.1354,241.3581 174.4479,242.4363 Q173.7604,243.4988 173.7604,245.5925 Q173.7604,247.6863 174.4479,248.7644 Q175.1354,249.8269 176.4791,249.8269 Q177.1041,249.8269 177.6979,249.5613 Q178.2916,249.28 178.9166,248.7019 L178.9166,251.4206 Z " fill="#000000"/><text fill="#000000" font-family="sans-serif" font-size="14" lengthAdjust="spacing" textLength="39.833" x="196.4479" y="250.6267">Music</text><line style="stroke:#181818;stroke-width:0.5;" x1="116.86" x2="283.3688" y1="261.78" y2="261.78"/><line style="stroke:#181818;stroke-width:0.5;" x1="116.86" x2="283.3688" y1="269.78" y2="269.78"/><g data-visibility-modifier="PUBLIC_METHOD"><ellipse cx="126.86" cy="283.4284" fill="#84BE84" rx="3" ry="3" style="stroke:#038048;stroke-width:1;"/></g><text fill="#000000" font-family="sans-serif" font-size="14" lengthAdjust="spacing" textLength="28.3623" x="135.86" y="286.7751">on()</text><g data-visibility-modifier="PUBLIC_METHOD"><ellipse cx="126.86" cy="299.7253" fill="#84BE84" rx="3" ry="3" style="stroke:#038048;stroke-width:1;"/></g><text fill="#000000" font-family="sans-serif" font-size="14" lengthAdjust="spacing" textLength="29.3467" x="135.86" y="303.072">off()</text><g data-visibility-modifier="PUBLIC_METHOD"><ellipse cx="126.86" cy="316.0222" fill="#84BE84" rx="3" ry="3" style="stroke:#038048;stroke-width:1;"/></g><text fill="#000000" font-family="sans-serif" font-size="14" lengthAdjust="spacing" textLength="142.5088" x="135.86" y="319.3689">play_song(song: str)</text></g><!--class SmartHomeFacade--><g class="entity" data-qualified-name="SmartHomeFacade" data-source-line="36" id="ent0009"><rect fill="#F1F1F1" height="145.7813" rx="2.5" ry="2.5" style="stroke:#181818;stroke-width:0.5;" width="166.1006" x="261.07" y="7"/><ellipse cx="276.07" cy="23" fill="#ADD1B2" rx="11" ry="11" style="stroke:#181818;stroke-width:1;"/><path d="M279.0388,28.6406 Q278.4606,28.9375 277.82,29.0781 Q277.1794,29.2344 276.4763,29.2344 Q273.9763,29.2344 272.6481,27.5938 Q271.3356,25.9375 271.3356,22.8125 Q271.3356,19.6875 272.6481,18.0313 Q273.9763,16.375 276.4763,16.375 Q277.1794,16.375 277.82,16.5313 Q278.4763,16.6875 279.0388,16.9844 L279.0388,19.7031 Q278.4138,19.125 277.82,18.8594 Q277.2263,18.5781 276.6013,18.5781 Q275.2575,18.5781 274.57,19.6563 Q273.8825,20.7188 273.8825,22.8125 Q273.8825,24.9063 274.57,25.9844 Q275.2575,27.0469 276.6013,27.0469 Q277.2263,27.0469 277.82,26.7813 Q278.4138,26.5 279.0388,25.9219 L279.0388,28.6406 Z " fill="#000000"/><text fill="#000000" font-family="sans-serif" font-size="14" lengthAdjust="spacing" textLength="134.1006" x="290.07" y="27.8467">SmartHomeFacade</text><line style="stroke:#181818;stroke-width:0.5;" x1="262.07" x2="426.1706" y1="39" y2="39"/><g data-visibility-modifier="PRIVATE_FIELD"><rect fill="none" height="6" style="stroke:#C82930;stroke-width:1;" width="6" x="269.07" y="49.6484"/></g><text fill="#000000" font-family="sans-serif" font-size="14" lengthAdjust="spacing" textLength="101.1719" x="281.07" y="55.9951">_lights : Lights</text><g data-visibility-modifier="PRIVATE_FIELD"><rect fill="none" height="6" style="stroke:#C82930;stroke-width:1;" width="6" x="269.07" y="65.9453"/></g><text fill="#000000" font-family="sans-serif" font-size="14" lengthAdjust="spacing" textLength="56.2461" x="281.07" y="72.292">_ac : AC</text><g data-visibility-modifier="PRIVATE_FIELD"><rect fill="none" height="6" style="stroke:#C82930;stroke-width:1;" width="6" x="269.07" y="82.2422"/></g><text fill="#000000" font-family="sans-serif" font-size="14" lengthAdjust="spacing" textLength="101.8418" x="281.07" y="88.5889">_music : Music</text><line style="stroke:#181818;stroke-width:0.5;" x1="262.07" x2="426.1706" y1="95.8906" y2="95.8906"/><g data-visibility-modifier="PUBLIC_METHOD"><ellipse cx="272.07" cy="109.5391" fill="#84BE84" rx="3" ry="3" style="stroke:#038048;stroke-width:1;"/></g><text fill="#000000" font-family="sans-serif" font-size="14" lengthAdjust="spacing" textLength="87.5273" x="281.07" y="112.8857">start_party()</text><g data-visibility-modifier="PUBLIC_METHOD"><ellipse cx="272.07" cy="125.8359" fill="#84BE84" rx="3" ry="3" style="stroke:#038048;stroke-width:1;"/></g><text fill="#000000" font-family="sans-serif" font-size="14" lengthAdjust="spacing" textLength="81.293" x="281.07" y="129.1826">end_party()</text><g data-visibility-modifier="PUBLIC_METHOD"><ellipse cx="272.07" cy="142.1328" fill="#84BE84" rx="3" ry="3" style="stroke:#038048;stroke-width:1;"/></g><text fill="#000000" font-family="sans-serif" font-size="14" lengthAdjust="spacing" textLength="117.585" x="281.07" y="145.4795">vacation_mode()</text></g><!--reverse link ElectricDevice to Lights--><g class="link" data-entity-1="ent0002" data-entity-2="ent0003" data-link-type="extension" data-source-line="29" id="lnk6"><path codeLine="29" d="M127.485,136.1179 C107.365,170.1779 87.67,203.51 67.56,237.55" fill="none" id="ElectricDevice-backto-Lights" style="stroke:#181818;stroke-width:1;"/><polygon fill="none" points="136.64,120.62,122.319,133.0663,132.651,139.1696,136.64,120.62" style="stroke:#181818;stroke-width:1;"/></g><!--reverse link ElectricDevice to AC--><g class="link" data-entity-1="ent0002" data-entity-2="ent0004" data-link-type="extension" data-source-line="30" id="lnk7"><path codeLine="30" d="M218.5008,132.389 C230.7608,142.999 230.53,142.58 243.12,152.78 C269.98,174.55 276.68,180.1 305.12,199.78 C319.43,209.69 334.97,219.88 350.03,229.48" fill="none" id="ElectricDevice-backto-AC" style="stroke:#181818;stroke-width:1;"/><polygon fill="none" points="204.89,120.61,214.5745,136.926,222.4272,127.8521,204.89,120.61" style="stroke:#181818;stroke-width:1;"/></g><!--reverse link ElectricDevice to Music--><g class="link" data-entity-1="ent0002" data-entity-2="ent0005" data-link-type="extension" data-source-line="31" id="lnk8"><path codeLine="31" d="M170.8964,138.2543 C175.2864,161.3843 177.68,173.43 183.12,199.78 C185.09,209.35 187.28,219.57 189.41,229.34" fill="none" id="ElectricDevice-backto-Music" style="stroke:#181818;stroke-width:1;"/><polygon fill="none" points="167.54,120.57,165.0017,139.3731,176.7912,137.1355,167.54,120.57" style="stroke:#181818;stroke-width:1;"/></g><!--link SmartHomeFacade to Lights--><g class="link" data-entity-1="ent0009" data-entity-2="ent0003" data-link-type="dependency" data-source-line="49" id="lnk10"><path codeLine="49" d="M260.63,141.56 C254.76,145.44 248.88,149.22 243.12,152.78 C181.04,191.13 158.15,188.31 98.12,229.78 C92.57,233.61 91.5869,234.11 86.1969,238.56" fill="none" id="SmartHomeFacade-to-Lights" style="stroke:#181818;stroke-width:1;"/><polygon fill="#181818" points="81.57,242.38,91.0569,239.7346,85.4257,239.1967,85.9637,233.5655,81.57,242.38" style="stroke:#181818;stroke-width:1;"/><text fill="#000000" font-family="sans-serif" font-size="13" lengthAdjust="spacing" textLength="29.7832" x="187.12" y="195.8469">uses</text></g><!--link SmartHomeFacade to AC--><g class="link" data-entity-1="ent0009" data-entity-2="ent0004" data-link-type="dependency" data-source-line="50" id="lnk11"><path codeLine="50" d="M375.04,153.16 C385.94,178.64 395.55,201.1036 405.36,224.0336" fill="none" id="SmartHomeFacade-to-AC" style="stroke:#181818;stroke-width:1;"/><polygon fill="#181818" points="407.72,229.55,407.8575,219.7021,405.7533,224.953,400.5024,222.8488,407.72,229.55" style="stroke:#181818;stroke-width:1;"/><text fill="#000000" font-family="sans-serif" font-size="13" lengthAdjust="spacing" textLength="29.7832" x="394.12" y="195.8469">uses</text></g><!--link SmartHomeFacade to Music--><g class="link" data-entity-1="ent0009" data-entity-2="ent0005" data-link-type="dependency" data-source-line="51" id="lnk12"><path codeLine="51" d="M297.97,153.14 C287.49,168.75 276.18,185 265.12,199.78 C257.75,209.62 253.3856,215.2478 245.3656,224.9378" fill="none" id="SmartHomeFacade-to-Music" style="stroke:#181818;stroke-width:1;"/><polygon fill="#181818" points="241.54,229.56,250.3599,225.1771,244.728,225.7082,244.1969,220.0763,241.54,229.56" style="stroke:#181818;stroke-width:1;"/><text fill="#000000" font-family="sans-serif" font-size="13" lengthAdjust="spacing" textLength="29.7832" x="277.12" y="195.8469">uses</text></g><?plantuml-src ZLB1ReCm3Btp5Rv1DV43Q9k4sAOTralt0IWDRXi94XIRIgZRloyGqBeAikOGEI_FzlEJOtXQEr4C-PxO2ib0tPvwOcmSk9uWPhgi1H6yrYZPAlc2PoKHBX6uys1qifcYmy65tr6mPWo5qT8Yuwy82cRuvX_gU68ADFMql5YZZ24XbwvXYrPmPp4PuWoKvgiIsuwK35PfQz6NPFGn6QuCd4jZ_er1ZrzfEkbU_CgBHNZi_v-9RqAA2k_mxRCHbjzDWpvZcYijQ-zdDWlqg90ESRhygncTo6P5ta5szShMNVri1-hgBt1shLWPNJQcmdjMOeVrc40drH8aarGsLoko2PQudJ9Dd-UDoQ0Zf4M6MvR0xtQQVY3y0000?></g></svg>