<svg xmlns="http://www.w3.org/2000/svg" xmlns:xlink="http://www.w3.org/1999/xlink" contentStyleType="text/css" data-diagram-type="CLASS" height="309px" preserveAspectRatio="none" style="width:360px;height:309px;background:#FFFFFF;" version="1.1" viewBox="0 0 360 309" width="360px" zoomAndPan="magnify"><?plantuml 1.2026.4beta2?><defs/><g><!--class FileSystemComponent--><g class="entity" data-qualified-name="FileSystemComponent" data-source-line="4" id="ent0002"><rect fill="#F1F1F1" height="96.8906" rx="2.5" ry="2.5" style="stroke:#181818;stroke-width:0.5;" width="189.9307" x="116.98" y="7"/><ellipse cx="131.98" cy="23" fill="#A9DCDF" rx="11" ry="11" style="stroke:#181818;stroke-width:1;"/><path d="M132.0894,18.3438 L130.9331,23.4219 L133.2613,23.4219 L132.0894,18.3438 Z M130.605,16.1094 L133.5894,16.1094 L136.9488,28.5 L134.4956,28.5 L133.73,25.4375 L130.4488,25.4375 L129.6988,28.5 L127.2613,28.5 L130.605,16.1094 Z " fill="#000000"/><text fill="#000000" font-family="sans-serif" font-size="14" font-style="italic" lengthAdjust="spacing" textLength="157.9307" x="145.98" y="27.8467">FileSystemComponent</text><line style="stroke:#181818;stroke-width:0.5;" x1="117.98" x2="305.9107" y1="39" y2="39"/><g data-visibility-modifier="PROTECTED_FIELD"><polygon fill="none" points="127.98,47.6484,131.98,51.6484,127.98,55.6484,123.98,51.6484" style="stroke:#B38D22;stroke-width:1;"/></g><text fill="#000000" font-family="sans-serif" font-size="14" lengthAdjust="spacing" textLength="71.8594" x="136.98" y="55.9951">name : str</text><line style="stroke:#181818;stroke-width:0.5;" x1="117.98" x2="305.9107" y1="63.2969" y2="63.2969"/><g data-visibility-modifier="PUBLIC_METHOD"><ellipse cx="127.98" cy="76.9453" fill="#84BE84" rx="3" ry="3" style="stroke:#038048;stroke-width:1;"/></g><text fill="#000000" font-family="sans-serif" font-size="14" lengthAdjust="spacing" textLength="125.8975" x="136.98" y="80.292">display(indent=0)</text><g data-visibility-modifier="PUBLIC_METHOD"><ellipse cx="127.98" cy="93.2422" fill="#84BE84" rx="3" ry="3" style="stroke:#038048;stroke-width:1;"/></g><text fill="#000000" font-family="sans-serif" font-size="14" lengthAdjust="spacing" textLength="86.0371" x="136.98" y="96.5889">count_files()</text></g><!--class File--><g class="entity" data-qualified-name="File" data-source-line="13" id="ent0003"><rect fill="#F1F1F1" height="80.5938" rx="2.5" ry="2.5" style="stroke:#181818;stroke-width:0.5;" width="151.8975" x="7" y="197.19"/><ellipse cx="66.4761" cy="213.19" fill="#ADD1B2" rx="11" ry="11" style="stroke:#181818;stroke-width:1;"/><path d="M69.4448,218.8306 Q68.8667,219.1275 68.2261,219.2681 Q67.5854,219.4244 66.8823,219.4244 Q64.3823,219.4244 63.0542,217.7838 Q61.7417,216.1275 61.7417,213.0025 Q61.7417,209.8775 63.0542,208.2213 Q64.3823,206.565 66.8823,206.565 Q67.5854,206.565 68.2261,206.7213 Q68.8823,206.8775 69.4448,207.1744 L69.4448,209.8931 Q68.8198,209.315 68.2261,209.0494 Q67.6323,208.7681 67.0073,208.7681 Q65.6636,208.7681 64.9761,209.8463 Q64.2886,210.9088 64.2886,213.0025 Q64.2886,215.0963 64.9761,216.1744 Q65.6636,217.2369 67.0073,217.2369 Q67.6323,217.2369 68.2261,216.9713 Q68.8198,216.69 69.4448,216.1119 L69.4448,218.8306 Z " fill="#000000"/><text fill="#000000" font-family="sans-serif" font-size="14" lengthAdjust="spacing" textLength="24.4453" x="86.9761" y="218.0367">File</text><line style="stroke:#181818;stroke-width:0.5;" x1="8" x2="157.8975" y1="229.19" y2="229.19"/><line style="stroke:#181818;stroke-width:0.5;" x1="8" x2="157.8975" y1="237.19" y2="237.19"/><g data-visibility-modifier="PUBLIC_METHOD"><ellipse cx="18" cy="250.8384" fill="#84BE84" rx="3" ry="3" style="stroke:#038048;stroke-width:1;"/></g><text fill="#000000" font-family="sans-serif" font-size="14" lengthAdjust="spacing" textLength="125.8975" x="27" y="254.1851">display(indent=0)</text><g data-visibility-modifier="PUBLIC_METHOD"><ellipse cx="18" cy="267.1353" fill="#84BE84" rx="3" ry="3" style="stroke:#038048;stroke-width:1;"/></g><text fill="#000000" font-family="sans-serif" font-size="14" lengthAdjust="spacing" textLength="86.0371" x="27" y="270.482">count_files()</text></g><!--class Folder--><g class="entity" data-qualified-name="Folder" data-source-line="21" id="ent0004"><rect fill="#F1F1F1" height="113.1875" rx="2.5" ry="2.5" style="stroke:#181818;stroke-width:0.5;" width="151.8975" x="194" y="180.89"/><ellipse cx="243.8169" cy="196.89" fill="#ADD1B2" rx="11" ry="11" style="stroke:#181818;stroke-width:1;"/><path d="M246.7856,202.5306 Q246.2075,202.8275 245.5669,202.9681 Q244.9263,203.1244 244.2231,203.1244 Q241.7231,203.1244 240.395,201.4838 Q239.0825,199.8275 239.0825,196.7025 Q239.0825,193.5775 240.395,191.9213 Q241.7231,190.265 244.2231,190.265 Q244.9263,190.265 245.5669,190.4213 Q246.2231,190.5775 246.7856,190.8744 L246.7856,193.5931 Q246.1606,193.015 245.5669,192.7494 Q244.9731,192.4681 244.3481,192.4681 Q243.0044,192.4681 242.3169,193.5463 Q241.6294,194.6088 241.6294,196.7025 Q241.6294,198.7963 242.3169,199.8744 Q243.0044,200.9369 244.3481,200.9369 Q244.9731,200.9369 245.5669,200.6713 Q246.1606,200.39 246.7856,199.8119 L246.7856,202.5306 Z " fill="#000000"/><text fill="#000000" font-family="sans-serif" font-size="14" lengthAdjust="spacing" textLength="43.7637" x="264.3169" y="201.7367">Folder</text><line style="stroke:#181818;stroke-width:0.5;" x1="195" x2="344.8975" y1="212.89" y2="212.89"/><g data-visibility-modifier="PRIVATE_FIELD"><rect fill="none" height="6" style="stroke:#C82930;stroke-width:1;" width="6" x="202" y="223.5384"/></g><text fill="#000000" font-family="sans-serif" font-size="14" lengthAdjust="spacing" textLength="90.6582" x="214" y="229.8851">children : list</text><line style="stroke:#181818;stroke-width:0.5;" x1="195" x2="344.8975" y1="237.1869" y2="237.1869"/><g data-visibility-modifier="PUBLIC_METHOD"><ellipse cx="205" cy="250.8353" fill="#84BE84" rx="3" ry="3" style="stroke:#038048;stroke-width:1;"/></g><text fill="#000000" font-family="sans-serif" font-size="14" lengthAdjust="spacing" textLength="116.4775" x="214" y="254.182">add(component)</text><g data-visibility-modifier="PUBLIC_METHOD"><ellipse cx="205" cy="267.1322" fill="#84BE84" rx="3" ry="3" style="stroke:#038048;stroke-width:1;"/></g><text fill="#000000" font-family="sans-serif" font-size="14" lengthAdjust="spacing" textLength="125.8975" x="214" y="270.4789">display(indent=0)</text><g data-visibility-modifier="PUBLIC_METHOD"><ellipse cx="205" cy="283.4291" fill="#84BE84" rx="3" ry="3" style="stroke:#038048;stroke-width:1;"/></g><text fill="#000000" font-family="sans-serif" font-size="14" lengthAdjust="spacing" textLength="86.0371" x="214" y="286.7757">count_files()</text></g><!--reverse link FileSystemComponent to File--><g class="link" data-entity-1="ent0002" data-entity-2="ent0003" data-link-type="extension" data-source-line="31" id="lnk5"><path codeLine="31" d="M167.2357,118.8514 C146.5557,147.7114 131,169.42 111.45,196.71" fill="none" id="FileSystemComponent-backto-File" style="stroke:#181818;stroke-width:1;"/><polygon fill="none" points="177.72,104.22,162.3585,115.3566,172.1128,122.3462,177.72,104.22" style="stroke:#181818;stroke-width:1;"/></g><!--reverse link FileSystemComponent to Folder--><g class="link" data-entity-1="ent0002" data-entity-2="ent0004" data-link-type="extension" data-source-line="32" id="lnk6"><path codeLine="32" d="M225.3557,121.5132 C228.7957,136.6632 229.07,135.84 233.95,150.89 C237.13,160.71 240.97,170.96 244.94,180.83" fill="none" id="FileSystemComponent-backto-Folder" style="stroke:#181818;stroke-width:1;"/><polygon fill="none" points="221.37,103.96,219.5046,122.8417,231.2067,120.1846,221.37,103.96" style="stroke:#181818;stroke-width:1;"/></g><!--reverse link Folder to FileSystemComponent--><g class="link" data-entity-1="ent0004" data-entity-2="ent0002" data-link-type="composition" data-source-line="37" id="lnk7"><path codeLine="37" d="M248.2303,169.0781 C240.3503,144.6181 234.89,127.66 227.34,104.22" fill="none" id="Folder-backto-FileSystemComponent" style="stroke:#181818;stroke-width:1;"/><polygon fill="#181818" points="251.91,180.5,253.8775,173.5625,248.2303,169.0781,246.2629,176.0156,251.91,180.5" style="stroke:#181818;stroke-width:1;"/><text fill="#000000" font-family="sans-serif" font-size="13" lengthAdjust="spacing" textLength="52.4443" x="241.95" y="146.9569">children</text></g><?plantuml-src hLB1QiCm3BtdAmGxnDa8x5pMmpOO37hR1mpDLh70iOEb74AtVv-N9XJ6clLGtMGzwJqzguRjkQXgU4vTdo951VFu8PhHAZoXK5Dgv_jmWTg08l32WTv6KUfEumuLbBY9s15ieC2d_Cwnz057mz4LrFQ-EJxRD4HztvSvOfhggrfbhs57k5-5d7JDGgv4FEqdh7G9UmgEyipVMi_1POh5ZC2YHtPqpjZ5ikQQGb-ZfyoAqH9ufepP-d6rvwzFVFXisyd5bUgqvSM-GQQ0oYcAvnwCPgAVunYi3lcVevlzl9qb_LQpWSNYRm00?></g></svg>